G04 DipTrace 3.0.0.2*
G04 BottomSilk.gbr*
%MOMM*%
G04 #@! TF.FileFunction,Legend,Bot*
G04 #@! TF.Part,Single*
%ADD10C,0.25*%
%ADD21C,0.00033*%
%ADD26C,0.127*%
%ADD33O,0.39172X0.39127*%
%ADD84C,0.19608*%
%FSLAX35Y35*%
G04*
G71*
G90*
G75*
G01*
G04 BotSilk*
%LPD*%
X1474690Y2450533D2*
D10*
X1604590D1*
X1966817D2*
X2096717D1*
X8542077Y4708677D2*
X8412177D1*
X3838603Y5706007D2*
X3968503D1*
X2911073Y5541700D2*
Y5411800D1*
X2308603Y6236007D2*
X2438503D1*
X2813548Y6241078D2*
X3313558D1*
X2813548Y5981042D2*
X3313558D1*
Y6241078D2*
Y5981042D1*
X2813548Y6161084D2*
Y6241078D1*
Y6061036D2*
Y5981042D1*
Y6161084D2*
G02X2813548Y6061036I-23J-50024D01*
G01*
X2254000Y1603173D2*
X1873000D1*
X1809500Y1666673D1*
Y1793673D1*
X1873000Y1857173D2*
X1809500Y1793673D1*
X2254000Y1857173D2*
X1873000D1*
X2317500Y1793673D2*
X2254000Y1857173D1*
X2317500Y1666673D2*
Y1793673D1*
Y1666673D2*
X2254000Y1603173D1*
D33*
X11720114Y4094290D3*
X11592754Y4070920D2*
D10*
Y3770933D1*
X11542753D1*
Y4070920D1*
X11592754D1*
X3303000Y5191000D2*
G02X3303000Y5191000I110000J0D01*
G01*
X1128100Y1968273D2*
G02X1128100Y1968273I110000J0D01*
G01*
X6779627Y5953000D2*
G02X6779627Y5953000I110000J0D01*
G01*
X9570000Y4420000D2*
G02X9570000Y4420000I110000J0D01*
G01*
Y4680000D2*
G02X9570000Y4680000I110000J0D01*
G01*
Y4930000D2*
G02X9570000Y4930000I110000J0D01*
G01*
Y5185000D2*
G02X9570000Y5185000I110000J0D01*
G01*
X9565000Y5440000D2*
G02X9565000Y5440000I110000J0D01*
G01*
X9570000Y3915000D2*
G02X9570000Y3915000I110000J0D01*
G01*
X3794820Y3634973D2*
G02X3794820Y3634973I110000J0D01*
G01*
X3798803Y5457810D2*
G02X3798803Y5457810I110000J0D01*
G01*
X4678228Y6477064D2*
D21*
X4678471Y6484040D1*
X4679201Y6490983D1*
X4680414Y6497858D1*
X4682103Y6504631D1*
X4684261Y6511270D1*
X4686877Y6517743D1*
X4689938Y6524017D1*
X4693430Y6530062D1*
X4697335Y6535850D1*
X4701634Y6541351D1*
X4706307Y6546538D1*
X4711330Y6551388D1*
X4716679Y6555875D1*
X4722329Y6559978D1*
X4728251Y6563677D1*
X4734417Y6566954D1*
X4740796Y6569794D1*
X4747358Y6572181D1*
X4754071Y6574106D1*
X4760901Y6575557D1*
X4767816Y6576528D1*
X4774782Y6577015D1*
X4781766D1*
X4788732Y6576528D1*
X4795647Y6575557D1*
X4802477Y6574106D1*
X4809190Y6572181D1*
X4815752Y6569794D1*
X4822131Y6566954D1*
X4828297Y6563677D1*
X4834219Y6559978D1*
X4839869Y6555875D1*
X4845218Y6551388D1*
X4850241Y6546538D1*
X4854914Y6541351D1*
X4859213Y6535850D1*
X4863118Y6530062D1*
X4866610Y6524017D1*
X4869671Y6517743D1*
X4872287Y6511270D1*
X4874445Y6504631D1*
X4876134Y6497858D1*
X4877347Y6490983D1*
X4878077Y6484040D1*
X4878320Y6477064D1*
X4878077Y6470087D1*
X4877347Y6463145D1*
X4876134Y6456270D1*
X4874445Y6449497D1*
X4872287Y6442858D1*
X4869671Y6436385D1*
X4866610Y6430111D1*
X4863118Y6424065D1*
X4859213Y6418278D1*
X4854914Y6412777D1*
X4850241Y6407589D1*
X4845218Y6402740D1*
X4839869Y6398253D1*
X4834219Y6394150D1*
X4828297Y6390450D1*
X4822131Y6387173D1*
X4815752Y6384334D1*
X4809190Y6381946D1*
X4802477Y6380022D1*
X4795647Y6378571D1*
X4788732Y6377599D1*
X4781766Y6377112D1*
X4774782D1*
X4767816Y6377599D1*
X4760901Y6378571D1*
X4754071Y6380022D1*
X4747358Y6381946D1*
X4740796Y6384334D1*
X4734417Y6387173D1*
X4728251Y6390450D1*
X4722329Y6394150D1*
X4716679Y6398253D1*
X4711330Y6402740D1*
X4706307Y6407589D1*
X4701634Y6412777D1*
X4697335Y6418278D1*
X4693430Y6424065D1*
X4689938Y6430111D1*
X4686877Y6436385D1*
X4684261Y6442858D1*
X4682103Y6449497D1*
X4680414Y6456270D1*
X4679201Y6463145D1*
X4678471Y6470087D1*
X4678228Y6477064D1*
X6202180D2*
X6202423Y6484040D1*
X6203153Y6490983D1*
X6204366Y6497858D1*
X6206055Y6504631D1*
X6208213Y6511270D1*
X6210829Y6517743D1*
X6213890Y6524017D1*
X6217382Y6530062D1*
X6221287Y6535850D1*
X6225586Y6541351D1*
X6230259Y6546538D1*
X6235282Y6551388D1*
X6240631Y6555875D1*
X6246281Y6559978D1*
X6252203Y6563677D1*
X6258369Y6566954D1*
X6264748Y6569794D1*
X6271310Y6572181D1*
X6278023Y6574106D1*
X6284853Y6575557D1*
X6291768Y6576528D1*
X6298734Y6577015D1*
X6305718D1*
X6312684Y6576528D1*
X6319599Y6575557D1*
X6326429Y6574106D1*
X6333142Y6572181D1*
X6339704Y6569794D1*
X6346083Y6566954D1*
X6352249Y6563677D1*
X6358171Y6559978D1*
X6363821Y6555875D1*
X6369170Y6551388D1*
X6374193Y6546538D1*
X6378866Y6541351D1*
X6383165Y6535850D1*
X6387070Y6530062D1*
X6390562Y6524017D1*
X6393623Y6517743D1*
X6396239Y6511270D1*
X6398397Y6504631D1*
X6400086Y6497858D1*
X6401299Y6490983D1*
X6402029Y6484040D1*
X6402272Y6477064D1*
X6402029Y6470087D1*
X6401299Y6463145D1*
X6400086Y6456270D1*
X6398397Y6449497D1*
X6396239Y6442858D1*
X6393623Y6436385D1*
X6390562Y6430111D1*
X6387070Y6424065D1*
X6383165Y6418278D1*
X6378866Y6412777D1*
X6374193Y6407589D1*
X6369170Y6402740D1*
X6363821Y6398253D1*
X6358171Y6394150D1*
X6352249Y6390450D1*
X6346083Y6387173D1*
X6339704Y6384334D1*
X6333142Y6381946D1*
X6326429Y6380022D1*
X6319599Y6378571D1*
X6312684Y6377599D1*
X6305718Y6377112D1*
X6298734D1*
X6291768Y6377599D1*
X6284853Y6378571D1*
X6278023Y6380022D1*
X6271310Y6381946D1*
X6264748Y6384334D1*
X6258369Y6387173D1*
X6252203Y6390450D1*
X6246281Y6394150D1*
X6240631Y6398253D1*
X6235282Y6402740D1*
X6230259Y6407589D1*
X6225586Y6412777D1*
X6221287Y6418278D1*
X6217382Y6424065D1*
X6213890Y6430111D1*
X6210829Y6436385D1*
X6208213Y6442858D1*
X6206055Y6449497D1*
X6204366Y6456270D1*
X6203153Y6463145D1*
X6202423Y6470087D1*
X6202180Y6477064D1*
Y2413000D2*
X6202423Y2419977D1*
X6203153Y2426919D1*
X6204366Y2433794D1*
X6206055Y2440568D1*
X6208213Y2447207D1*
X6210829Y2453679D1*
X6213890Y2459953D1*
X6217382Y2465999D1*
X6221287Y2471786D1*
X6225586Y2477287D1*
X6230259Y2482475D1*
X6235282Y2487324D1*
X6240631Y2491811D1*
X6246281Y2495914D1*
X6252203Y2499614D1*
X6258369Y2502891D1*
X6264748Y2505730D1*
X6271310Y2508118D1*
X6278023Y2510042D1*
X6284853Y2511493D1*
X6291768Y2512465D1*
X6298734Y2512952D1*
X6305718D1*
X6312684Y2512465D1*
X6319599Y2511493D1*
X6326429Y2510042D1*
X6333142Y2508118D1*
X6339704Y2505730D1*
X6346083Y2502891D1*
X6352249Y2499614D1*
X6358171Y2495914D1*
X6363821Y2491811D1*
X6369170Y2487324D1*
X6374193Y2482475D1*
X6378866Y2477287D1*
X6383165Y2471786D1*
X6387070Y2465999D1*
X6390562Y2459953D1*
X6393623Y2453679D1*
X6396239Y2447207D1*
X6398397Y2440568D1*
X6400086Y2433794D1*
X6401299Y2426919D1*
X6402029Y2419977D1*
X6402272Y2413000D1*
X6402029Y2406024D1*
X6401299Y2399081D1*
X6400086Y2392207D1*
X6398397Y2385433D1*
X6396239Y2378794D1*
X6393623Y2372322D1*
X6390562Y2366047D1*
X6387070Y2360002D1*
X6383165Y2354214D1*
X6378866Y2348714D1*
X6374193Y2343526D1*
X6369170Y2338677D1*
X6363821Y2334189D1*
X6358171Y2330086D1*
X6352249Y2326387D1*
X6346083Y2323110D1*
X6339704Y2320270D1*
X6333142Y2317883D1*
X6326429Y2315959D1*
X6319599Y2314507D1*
X6312684Y2313536D1*
X6305718Y2313049D1*
X6298734D1*
X6291768Y2313536D1*
X6284853Y2314507D1*
X6278023Y2315959D1*
X6271310Y2317883D1*
X6264748Y2320270D1*
X6258369Y2323110D1*
X6252203Y2326387D1*
X6246281Y2330086D1*
X6240631Y2334189D1*
X6235282Y2338677D1*
X6230259Y2343526D1*
X6225586Y2348714D1*
X6221287Y2354214D1*
X6217382Y2360002D1*
X6213890Y2366047D1*
X6210829Y2372322D1*
X6208213Y2378794D1*
X6206055Y2385433D1*
X6204366Y2392207D1*
X6203153Y2399081D1*
X6202423Y2406024D1*
X6202180Y2413000D1*
X4678228D2*
X4678471Y2419977D1*
X4679201Y2426919D1*
X4680414Y2433794D1*
X4682103Y2440568D1*
X4684261Y2447207D1*
X4686877Y2453679D1*
X4689938Y2459953D1*
X4693430Y2465999D1*
X4697335Y2471786D1*
X4701634Y2477287D1*
X4706307Y2482475D1*
X4711330Y2487324D1*
X4716679Y2491811D1*
X4722329Y2495914D1*
X4728251Y2499614D1*
X4734417Y2502891D1*
X4740796Y2505730D1*
X4747358Y2508118D1*
X4754071Y2510042D1*
X4760901Y2511493D1*
X4767816Y2512465D1*
X4774782Y2512952D1*
X4781766D1*
X4788732Y2512465D1*
X4795647Y2511493D1*
X4802477Y2510042D1*
X4809190Y2508118D1*
X4815752Y2505730D1*
X4822131Y2502891D1*
X4828297Y2499614D1*
X4834219Y2495914D1*
X4839869Y2491811D1*
X4845218Y2487324D1*
X4850241Y2482475D1*
X4854914Y2477287D1*
X4859213Y2471786D1*
X4863118Y2465999D1*
X4866610Y2459953D1*
X4869671Y2453679D1*
X4872287Y2447207D1*
X4874445Y2440568D1*
X4876134Y2433794D1*
X4877347Y2426919D1*
X4878077Y2419977D1*
X4878320Y2413000D1*
X4878077Y2406024D1*
X4877347Y2399081D1*
X4876134Y2392207D1*
X4874445Y2385433D1*
X4872287Y2378794D1*
X4869671Y2372322D1*
X4866610Y2366047D1*
X4863118Y2360002D1*
X4859213Y2354214D1*
X4854914Y2348714D1*
X4850241Y2343526D1*
X4845218Y2338677D1*
X4839869Y2334189D1*
X4834219Y2330086D1*
X4828297Y2326387D1*
X4822131Y2323110D1*
X4815752Y2320270D1*
X4809190Y2317883D1*
X4802477Y2315959D1*
X4795647Y2314507D1*
X4788732Y2313536D1*
X4781766Y2313049D1*
X4774782D1*
X4767816Y2313536D1*
X4760901Y2314507D1*
X4754071Y2315959D1*
X4747358Y2317883D1*
X4740796Y2320270D1*
X4734417Y2323110D1*
X4728251Y2326387D1*
X4722329Y2330086D1*
X4716679Y2334189D1*
X4711330Y2338677D1*
X4706307Y2343526D1*
X4701634Y2348714D1*
X4697335Y2354214D1*
X4693430Y2360002D1*
X4689938Y2366047D1*
X4686877Y2372322D1*
X4684261Y2378794D1*
X4682103Y2385433D1*
X4680414Y2392207D1*
X4679201Y2399081D1*
X4678471Y2406024D1*
X4678228Y2413000D1*
X4651232Y6603746D2*
D26*
Y2285873D1*
X6429268D1*
Y6603746D1*
X4651232D1*
X5159216Y6730873D2*
X5921284D1*
Y5841873D1*
X5159216D1*
Y6730873D1*
X8532583Y5045232D2*
D10*
X7532663D1*
X8532583Y5305268D2*
X7532663D1*
Y5045232D2*
Y5305268D1*
X8532583Y5045232D2*
Y5125226D1*
Y5225274D2*
Y5305268D1*
Y5125226D2*
G02X8532583Y5225274I28J50024D01*
G01*
X1531203Y3032552D2*
D84*
X1519130Y3038588D1*
X1506917Y3050802D1*
X1500880Y3062875D1*
Y3087161D1*
X1506917Y3099375D1*
X1519130Y3111448D1*
X1531203Y3117625D1*
X1549453Y3123661D1*
X1579917D1*
X1598026Y3117625D1*
X1610240Y3111448D1*
X1622313Y3099375D1*
X1628490Y3087161D1*
Y3062875D1*
X1622313Y3050802D1*
X1610240Y3038588D1*
X1598026Y3032552D1*
X1525307Y2993336D2*
X1519130Y2981123D1*
X1501020Y2962873D1*
X1628490D1*
X1991583Y3043983D2*
X1979510Y3050020D1*
X1967297Y3062233D1*
X1961260Y3074306D1*
Y3098593D1*
X1967297Y3110806D1*
X1979510Y3122879D1*
X1991583Y3129056D1*
X2009833Y3135093D1*
X2040297D1*
X2058406Y3129056D1*
X2070620Y3122879D1*
X2082693Y3110806D1*
X2088870Y3098593D1*
Y3074306D1*
X2082693Y3062233D1*
X2070620Y3050020D1*
X2058406Y3043983D1*
X1991724Y2998591D2*
X1985687D1*
X1973474Y2992554D1*
X1967437Y2986518D1*
X1961401Y2974304D1*
X1961400Y2950018D1*
X1967437Y2937944D1*
X1973474Y2931908D1*
X1985687Y2925731D1*
X1997760D1*
X2009974Y2931908D1*
X2028083Y2943981D1*
X2088870Y3004767D1*
Y2919694D1*
X8246463Y4545240D2*
X8234390Y4551276D1*
X8222177Y4563490D1*
X8216140Y4575563D1*
Y4599849D1*
X8222177Y4612063D1*
X8234390Y4624136D1*
X8246463Y4630313D1*
X8264713Y4636349D1*
X8295177D1*
X8313286Y4630313D1*
X8325500Y4624136D1*
X8337573Y4612063D1*
X8343750Y4599849D1*
Y4575563D1*
X8337573Y4563490D1*
X8325500Y4551276D1*
X8313286Y4545240D1*
X8216281Y4493811D2*
X8216280Y4427128D1*
X8264854Y4463488D1*
Y4445238D1*
X8270890Y4433165D1*
X8276927Y4427128D1*
X8295177Y4420951D1*
X8307250D1*
X8325500Y4427128D1*
X8337713Y4439201D1*
X8343750Y4457451D1*
Y4475701D1*
X8337713Y4493811D1*
X8331536Y4499847D1*
X8319463Y4506024D1*
X3895117Y6328115D2*
X3883044Y6334151D1*
X3870830Y6346365D1*
X3864794Y6358438D1*
Y6382724D1*
X3870830Y6394938D1*
X3883044Y6407011D1*
X3895117Y6413188D1*
X3913367Y6419224D1*
X3943830D1*
X3961940Y6413188D1*
X3974153Y6407011D1*
X3986226Y6394938D1*
X3992403Y6382724D1*
Y6358438D1*
X3986226Y6346364D1*
X3974153Y6334151D1*
X3961940Y6328115D1*
X3883043Y6216039D2*
X3870970Y6222076D1*
X3864934Y6240326D1*
Y6252399D1*
X3870970Y6270649D1*
X3889220Y6282862D1*
X3919544Y6288899D1*
X3949867D1*
X3974153Y6282862D1*
X3986367Y6270649D1*
X3992403Y6252399D1*
Y6246362D1*
X3986367Y6228253D1*
X3974153Y6216039D1*
X3955903Y6210003D1*
X3949866D1*
X3931616Y6216039D1*
X3919543Y6228253D1*
X3913507Y6246363D1*
Y6252399D1*
X3919544Y6270649D1*
X3931617Y6282862D1*
X3949867Y6288899D1*
X3441030Y5485187D2*
X3447066Y5497260D1*
X3459280Y5509473D1*
X3471353Y5515510D1*
X3495639D1*
X3507853Y5509473D1*
X3519926Y5497260D1*
X3526103Y5485187D1*
X3532139Y5466937D1*
Y5436473D1*
X3526103Y5418364D1*
X3519926Y5406150D1*
X3507853Y5394077D1*
X3495639Y5387900D1*
X3471353D1*
X3459280Y5394077D1*
X3447066Y5406150D1*
X3441030Y5418364D1*
X3377527Y5387900D2*
X3316741Y5515370D1*
X3401814D1*
X1920663Y6432553D2*
X1908590Y6438589D1*
X1896377Y6450803D1*
X1890340Y6462876D1*
Y6487162D1*
X1896377Y6499376D1*
X1908590Y6511449D1*
X1920663Y6517626D1*
X1938913Y6523662D1*
X1969377D1*
X1987486Y6517626D1*
X1999700Y6511449D1*
X2011773Y6499376D1*
X2017950Y6487162D1*
Y6462876D1*
X2011773Y6450803D1*
X1999700Y6438589D1*
X1987486Y6432553D1*
X1890481Y6363014D2*
X1896517Y6381124D1*
X1908590Y6387301D1*
X1920804D1*
X1932877Y6381124D1*
X1939054Y6369051D1*
X1945090Y6344764D1*
X1951127Y6326514D1*
X1963340Y6314441D1*
X1975413Y6308405D1*
X1993663D1*
X2005736Y6314441D1*
X2011913Y6320478D1*
X2017950Y6338728D1*
Y6363014D1*
X2011913Y6381124D1*
X2005736Y6387301D1*
X1993663Y6393337D1*
X1975413D1*
X1963340Y6387301D1*
X1951127Y6375087D1*
X1945090Y6356978D1*
X1939054Y6332691D1*
X1932877Y6320478D1*
X1920804Y6314441D1*
X1908590D1*
X1896517Y6320478D1*
X1890480Y6338728D1*
X1890481Y6363014D1*
X3163556Y6667047D2*
Y6539437D1*
X3033230Y6636724D2*
X3039267Y6648797D1*
X3051480Y6661010D1*
X3063553Y6667047D1*
X3087840D1*
X3100053Y6661010D1*
X3112126Y6648797D1*
X3118303Y6636724D1*
X3124340Y6618474D1*
Y6588010D1*
X3118303Y6569900D1*
X3112126Y6557687D1*
X3100053Y6545614D1*
X3087840Y6539437D1*
X3063553D1*
X3051480Y6545614D1*
X3039267Y6557687D1*
X3033230Y6569900D1*
X2994015Y6642620D2*
X2981801Y6648797D1*
X2963551Y6666906D1*
Y6539437D1*
X2003029Y1519340D2*
Y1422194D1*
X2009066Y1403944D1*
X2015243Y1397907D1*
X2027316Y1391730D1*
X2039529D1*
X2051602Y1397907D1*
X2057639Y1403944D1*
X2063816Y1422194D1*
Y1434267D1*
X1903027Y1391730D2*
Y1519200D1*
X1963814Y1434267D1*
X1872704D1*
X11644264Y3712527D2*
X11656337Y3706630D1*
X11668551Y3694417D1*
X11674587Y3682204D1*
X11680764Y3663954D1*
Y3633630D1*
X11674587Y3615380D1*
X11668551Y3603307D1*
X11656337Y3591094D1*
X11644264Y3585057D1*
X11619978D1*
X11607764Y3591094D1*
X11595691Y3603307D1*
X11589655Y3615380D1*
X11583478Y3633630D1*
Y3663954D1*
X11589655Y3682204D1*
X11595691Y3694417D1*
X11607764Y3706630D1*
X11619978Y3712527D1*
X11644264D1*
X11626014Y3609344D2*
X11589655Y3572844D1*
X11532049Y3712386D2*
X11465366D1*
X11501726Y3663813D1*
X11483476D1*
X11471402Y3657777D1*
X11465366Y3651740D1*
X11459189Y3633490D1*
Y3621417D1*
X11465366Y3603167D1*
X11477439Y3590954D1*
X11495689Y3584917D1*
X11513939D1*
X11532049Y3590954D1*
X11538085Y3597130D1*
X11544262Y3609204D1*
X3730854Y5598553D2*
X3676245D1*
X3657995Y5604730D1*
X3651818Y5610767D1*
X3645781Y5622840D1*
Y5635053D1*
X3651818Y5647126D1*
X3657995Y5653303D1*
X3676245Y5659340D1*
X3730854D1*
Y5531730D1*
X3688318Y5598553D2*
X3645781Y5531730D1*
X3600389Y5628876D2*
Y5634913D1*
X3594352Y5647126D1*
X3588315Y5653163D1*
X3576102Y5659200D1*
X3551815D1*
X3539742Y5653163D1*
X3533706Y5647126D1*
X3527529Y5634913D1*
Y5622840D1*
X3533706Y5610626D1*
X3545779Y5592517D1*
X3606565Y5531730D1*
X3521492D1*
X3505580Y6552099D2*
Y6497490D1*
X3499403Y6479240D1*
X3493367Y6473063D1*
X3481294Y6467026D1*
X3469080D1*
X3457007Y6473063D1*
X3450830Y6479240D1*
X3444794Y6497490D1*
Y6552099D1*
X3572403D1*
X3505580Y6509563D2*
X3572403Y6467026D1*
Y6367024D2*
X3444934D1*
X3529867Y6427811D1*
X3529866Y6336701D1*
X7327388Y3025837D2*
X7272778D1*
X7254528Y3032014D1*
X7248351Y3038050D1*
X7242315Y3050123D1*
Y3062337D1*
X7248351Y3074410D1*
X7254528Y3080587D1*
X7272778Y3086623D1*
X7327388D1*
Y2959014D1*
X7284851Y3025837D2*
X7242315Y2959014D1*
X7130239Y3086483D2*
X7190885D1*
X7196922Y3031873D1*
X7190885Y3037910D1*
X7172635Y3044087D1*
X7154526D1*
X7136276Y3037910D1*
X7124062Y3025837D1*
X7118026Y3007587D1*
Y2995514D1*
X7124062Y2977264D1*
X7136276Y2965050D1*
X7154526Y2959014D1*
X7172635D1*
X7190885Y2965050D1*
X7196922Y2971227D1*
X7203099Y2983300D1*
X3688747Y6548994D2*
Y6494385D1*
X3682570Y6476135D1*
X3676533Y6469958D1*
X3664460Y6463921D1*
X3652247D1*
X3640174Y6469958D1*
X3633997Y6476135D1*
X3627960Y6494385D1*
Y6548994D1*
X3755570D1*
X3688747Y6506458D2*
X3755570Y6463921D1*
Y6400419D2*
X3628100Y6339633D1*
X3628101Y6424706D1*
X2371607Y6192417D2*
Y6137808D1*
X2365430Y6119558D1*
X2359393Y6113381D1*
X2347320Y6107345D1*
X2335107D1*
X2323034Y6113381D1*
X2316857Y6119558D1*
X2310820Y6137808D1*
Y6192418D1*
X2438430Y6192417D1*
X2371607Y6149881D2*
X2438430Y6107344D1*
X2310961Y6037806D2*
X2316997Y6055915D1*
X2329070Y6062092D1*
X2341284D1*
X2353357Y6055915D1*
X2359534Y6043842D1*
X2365570Y6019556D1*
X2371607Y6001306D1*
X2383820Y5989233D1*
X2395893Y5983196D1*
X2414143D1*
X2426216Y5989233D1*
X2432393Y5995269D1*
X2438430Y6013519D1*
Y6037806D1*
X2432393Y6055915D1*
X2426216Y6062092D1*
X2414143Y6068129D1*
X2395893D1*
X2383820Y6062092D1*
X2371607Y6049879D1*
X2365570Y6031769D1*
X2359534Y6007483D1*
X2353357Y5995269D1*
X2341284Y5989233D1*
X2329070D1*
X2316997Y5995269D1*
X2310960Y6013519D1*
X2310961Y6037806D1*
X7324869Y4454593D2*
X7270260D1*
X7252010Y4460770D1*
X7245833Y4466807D1*
X7239796Y4478880D1*
Y4491093D1*
X7245833Y4503166D1*
X7252010Y4509343D1*
X7270260Y4515380D1*
X7324869D1*
Y4387770D1*
X7282333Y4454593D2*
X7239796Y4387770D1*
X7121544Y4472843D2*
X7127721Y4454593D1*
X7139794Y4442380D1*
X7158044Y4436343D1*
X7164081D1*
X7182331Y4442380D1*
X7194404Y4454593D1*
X7200581Y4472843D1*
Y4478880D1*
X7194404Y4497130D1*
X7182331Y4509203D1*
X7164081Y4515240D1*
X7158044D1*
X7139794Y4509203D1*
X7127721Y4497130D1*
X7121544Y4472843D1*
Y4442380D1*
X7127721Y4412057D1*
X7139794Y4393807D1*
X7158044Y4387770D1*
X7170117D1*
X7188367Y4393807D1*
X7194404Y4406020D1*
X7335422Y4692720D2*
X7280813D1*
X7262563Y4698897D1*
X7256386Y4704934D1*
X7250349Y4717007D1*
Y4729220D1*
X7256386Y4741293D1*
X7262563Y4747470D1*
X7280813Y4753507D1*
X7335422D1*
Y4625897D1*
X7292886Y4692720D2*
X7250349Y4625897D1*
X7211134Y4729080D2*
X7198920Y4735257D1*
X7180670Y4753366D1*
Y4625897D1*
X7141454Y4729080D2*
X7129241Y4735257D1*
X7110991Y4753366D1*
Y4625897D1*
X7346854Y4962593D2*
X7292244D1*
X7273994Y4968770D1*
X7267817Y4974807D1*
X7261781Y4986880D1*
Y4999093D1*
X7267817Y5011166D1*
X7273994Y5017343D1*
X7292244Y5023380D1*
X7346854D1*
Y4895770D1*
X7304317Y4962593D2*
X7261781Y4895770D1*
X7222565Y4998953D2*
X7210352Y5005130D1*
X7192102Y5023240D1*
Y4895770D1*
X7146709Y4992916D2*
Y4998953D1*
X7140672Y5011166D1*
X7134636Y5017203D1*
X7122422Y5023240D1*
X7098136D1*
X7086063Y5017203D1*
X7080026Y5011166D1*
X7073849Y4998953D1*
Y4986880D1*
X7080026Y4974666D1*
X7092099Y4956557D1*
X7152886Y4895770D1*
X7067813D1*
X7349372Y3295707D2*
X7294762D1*
X7276512Y3301884D1*
X7270336Y3307920D1*
X7264299Y3319993D1*
Y3332207D1*
X7270336Y3344280D1*
X7276512Y3350457D1*
X7294762Y3356493D1*
X7349372D1*
Y3228884D1*
X7306836Y3295707D2*
X7264299Y3228884D1*
X7225083Y3332066D2*
X7212870Y3338243D1*
X7194620Y3356353D1*
Y3228884D1*
X7094618D2*
Y3356353D1*
X7155404Y3271420D1*
X7064295D1*
X10736507Y3727114D2*
Y3672504D1*
X10730330Y3654254D1*
X10724293Y3648077D1*
X10712220Y3642041D1*
X10700007D1*
X10687934Y3648077D1*
X10681757Y3654254D1*
X10675720Y3672504D1*
Y3727114D1*
X10803330D1*
X10736507Y3684577D2*
X10803330Y3642041D1*
X10700147Y3602825D2*
X10693970Y3590612D1*
X10675861Y3572362D1*
X10803330D1*
X10675860Y3460287D2*
X10675861Y3520933D1*
X10730470Y3526969D1*
X10724434Y3520933D1*
X10718257Y3502683D1*
Y3484573D1*
X10724434Y3466323D1*
X10736507Y3454110D1*
X10754757Y3448073D1*
X10766830D1*
X10785080Y3454110D1*
X10797293Y3466323D1*
X10803330Y3484573D1*
Y3502683D1*
X10797293Y3520933D1*
X10791116Y3526969D1*
X10779043Y3533146D1*
X10292053Y3739419D2*
Y3684809D1*
X10285876Y3666559D1*
X10279840Y3660382D1*
X10267767Y3654346D1*
X10255553D1*
X10243480Y3660382D1*
X10237303Y3666559D1*
X10231267Y3684809D1*
Y3739419D1*
X10358876D1*
X10292053Y3696882D2*
X10358876Y3654346D1*
X10255694Y3615130D2*
X10249517Y3602917D1*
X10231407Y3584667D1*
X10358876D1*
X10249517Y3472592D2*
X10237444Y3478628D1*
X10231407Y3496878D1*
Y3508951D1*
X10237444Y3527201D1*
X10255694Y3539415D1*
X10286017Y3545451D1*
X10316340D1*
X10340627Y3539414D1*
X10352840Y3527201D1*
X10358876Y3508951D1*
Y3502914D1*
X10352840Y3484805D1*
X10340626Y3472592D1*
X10322376Y3466555D1*
X10316340D1*
X10298090Y3472592D1*
X10286017Y3484805D1*
X10279980Y3502915D1*
Y3508951D1*
X10286017Y3527201D1*
X10298090Y3539414D1*
X10316340Y3545451D1*
X2133507Y6575581D2*
Y6520971D1*
X2127330Y6502721D1*
X2121293Y6496544D1*
X2109220Y6490508D1*
X2097007D1*
X2084934Y6496544D1*
X2078757Y6502721D1*
X2072720Y6520971D1*
Y6575581D1*
X2200330D1*
X2133507Y6533044D2*
X2200330Y6490507D1*
X2097147Y6451292D2*
X2090970Y6439078D1*
X2072861Y6420828D1*
X2200330D1*
Y6357326D2*
X2072860Y6296540D1*
X2072861Y6381613D1*
X2984387Y4975427D2*
X2929777D1*
X2911527Y4981604D1*
X2905350Y4987640D1*
X2899314Y4999713D1*
Y5011927D1*
X2905350Y5024000D1*
X2911527Y5030177D1*
X2929777Y5036213D1*
X2984387D1*
Y4908604D1*
X2941850Y4975427D2*
X2899314Y4908604D1*
X2860098Y5011786D2*
X2847885Y5017963D1*
X2829635Y5036073D1*
Y4908604D1*
X2760096Y5036073D2*
X2778206Y5030036D1*
X2784383Y5017963D1*
Y5005750D1*
X2778206Y4993677D1*
X2766133Y4987500D1*
X2741846Y4981463D1*
X2723596Y4975427D1*
X2711523Y4963213D1*
X2705486Y4951140D1*
Y4932890D1*
X2711523Y4920817D1*
X2717559Y4914640D1*
X2735809Y4908604D1*
X2760096D1*
X2778206Y4914640D1*
X2784383Y4920817D1*
X2790419Y4932890D1*
Y4951140D1*
X2784383Y4963213D1*
X2772169Y4975427D1*
X2754059Y4981463D1*
X2729773Y4987500D1*
X2717559Y4993677D1*
X2711523Y5005750D1*
Y5017963D1*
X2717559Y5030036D1*
X2735809Y5036073D1*
X2760096D1*
X7390032Y3565580D2*
X7335422D1*
X7317172Y3571757D1*
X7310995Y3577794D1*
X7304959Y3589867D1*
Y3602080D1*
X7310995Y3614153D1*
X7317172Y3620330D1*
X7335422Y3626367D1*
X7390032D1*
Y3498757D1*
X7347495Y3565580D2*
X7304959Y3498757D1*
X7259566Y3595903D2*
Y3601940D1*
X7253530Y3614153D1*
X7247493Y3620190D1*
X7235280Y3626226D1*
X7210993D1*
X7198920Y3620190D1*
X7192884Y3614153D1*
X7186707Y3601940D1*
Y3589867D1*
X7192884Y3577653D1*
X7204957Y3559544D1*
X7265743Y3498757D1*
X7180670D1*
X7104954Y3626226D2*
X7123204Y3620190D1*
X7135418Y3601940D1*
X7141454Y3571617D1*
Y3553367D1*
X7135418Y3523044D1*
X7123204Y3504794D1*
X7104954Y3498757D1*
X7092881D1*
X7074631Y3504794D1*
X7062558Y3523044D1*
X7056381Y3553367D1*
Y3571617D1*
X7062558Y3601940D1*
X7074631Y3620190D1*
X7092881Y3626226D1*
X7104954D1*
X7062558Y3601940D2*
X7135418Y3523044D1*
X3369874Y4985277D2*
X3497483D1*
X3369874Y5027814D2*
Y4942741D1*
X3436697Y4903525D2*
Y4848775D1*
X3430660Y4830666D1*
X3424483Y4824489D1*
X3412410Y4818452D1*
X3394160D1*
X3382087Y4824489D1*
X3375910Y4830666D1*
X3369874Y4848775D1*
Y4903525D1*
X3497483D1*
X3394300Y4779237D2*
X3388123Y4767023D1*
X3370014Y4748773D1*
X3497483D1*
X1179100Y2456536D2*
X1306710Y2456535D1*
X1179100Y2499072D2*
Y2413999D1*
X1245923Y2374783D2*
Y2320033D1*
X1239887Y2301924D1*
X1233710Y2295747D1*
X1221637Y2289710D1*
X1203387D1*
X1191314Y2295747D1*
X1185137Y2301924D1*
X1179100Y2320033D1*
Y2374783D1*
X1306710D1*
X1209564Y2244318D2*
X1203527D1*
X1191314Y2238281D1*
X1185277Y2232245D1*
X1179241Y2220031D1*
X1179240Y2195745D1*
X1185277Y2183672D1*
X1191314Y2177635D1*
X1203527Y2171458D1*
X1215600D1*
X1227814Y2177635D1*
X1245923Y2189708D1*
X1306710Y2250495D1*
Y2165422D1*
X7045662Y5772787D2*
Y5645177D1*
X7088199Y5772787D2*
X7003126D1*
X6963910Y5705964D2*
X6909160D1*
X6891050Y5712000D1*
X6884873Y5718177D1*
X6878837Y5730250D1*
Y5748500D1*
X6884873Y5760573D1*
X6891050Y5766750D1*
X6909160Y5772787D1*
X6963910D1*
Y5645177D1*
X6827408Y5772646D2*
X6760725D1*
X6797085Y5724073D1*
X6778835D1*
X6766761Y5718037D1*
X6760725Y5712000D1*
X6754548Y5693750D1*
Y5681677D1*
X6760725Y5663427D1*
X6772798Y5651214D1*
X6791048Y5645177D1*
X6809298D1*
X6827408Y5651214D1*
X6833444Y5657390D1*
X6839621Y5669464D1*
X10172394Y4525507D2*
Y4397897D1*
X10214930Y4525507D2*
X10129857D1*
X10090641Y4458684D2*
X10035891D1*
X10017782Y4464720D1*
X10011605Y4470897D1*
X10005568Y4482970D1*
Y4501220D1*
X10011605Y4513293D1*
X10017782Y4519470D1*
X10035891Y4525507D1*
X10090641D1*
Y4397897D1*
X9905566D2*
Y4525366D1*
X9966353Y4440434D1*
X9875243D1*
X10153502Y4785507D2*
Y4657897D1*
X10196039Y4785507D2*
X10110966D1*
X10071750Y4718684D2*
X10017000D1*
X9998890Y4724720D1*
X9992713Y4730897D1*
X9986677Y4742970D1*
Y4761220D1*
X9992713Y4773293D1*
X9998890Y4779470D1*
X10017000Y4785507D1*
X10071750D1*
Y4657897D1*
X9874601Y4785366D2*
X9935248D1*
X9941284Y4730757D1*
X9935248Y4736793D1*
X9916998Y4742970D1*
X9898888D1*
X9880638Y4736793D1*
X9868425Y4724720D1*
X9862388Y4706470D1*
Y4694397D1*
X9868425Y4676147D1*
X9880638Y4663934D1*
X9898888Y4657897D1*
X9916998D1*
X9935248Y4663934D1*
X9941284Y4670110D1*
X9947461Y4682184D1*
X10150414Y5035507D2*
Y4907897D1*
X10192950Y5035507D2*
X10107877D1*
X10068661Y4968684D2*
X10013911D1*
X9995802Y4974720D1*
X9989625Y4980897D1*
X9983588Y4992970D1*
Y5011220D1*
X9989625Y5023293D1*
X9995802Y5029470D1*
X10013911Y5035507D1*
X10068661D1*
Y4907897D1*
X9871513Y5017257D2*
X9877550Y5029330D1*
X9895800Y5035366D1*
X9907873D1*
X9926123Y5029330D1*
X9938336Y5011080D1*
X9944373Y4980757D1*
Y4950434D1*
X9938336Y4926147D1*
X9926123Y4913934D1*
X9907873Y4907897D1*
X9901836D1*
X9883726Y4913934D1*
X9871513Y4926147D1*
X9865476Y4944397D1*
Y4950434D1*
X9871513Y4968684D1*
X9883726Y4980757D1*
X9901836Y4986793D1*
X9907873D1*
X9926123Y4980757D1*
X9938336Y4968684D1*
X9944373Y4950434D1*
X10153502Y5274633D2*
Y5147024D1*
X10196039Y5274633D2*
X10110966D1*
X10071750Y5207810D2*
X10017000D1*
X9998890Y5213847D1*
X9992713Y5220024D1*
X9986677Y5232097D1*
Y5250347D1*
X9992713Y5262420D1*
X9998890Y5268597D1*
X10017000Y5274633D1*
X10071750D1*
Y5147024D1*
X9923175D2*
X9862388Y5274493D1*
X9947461D1*
X10164305Y5545507D2*
Y5417897D1*
X10206842Y5545507D2*
X10121769D1*
X10082553Y5478684D2*
X10027803D1*
X10009693Y5484720D1*
X10003516Y5490897D1*
X9997480Y5502970D1*
Y5521220D1*
X10003516Y5533293D1*
X10009693Y5539470D1*
X10027803Y5545507D1*
X10082553D1*
Y5417897D1*
X9927941Y5545366D2*
X9946051Y5539330D1*
X9952228Y5527257D1*
Y5515043D1*
X9946051Y5502970D1*
X9933978Y5496793D1*
X9909691Y5490757D1*
X9891441Y5484720D1*
X9879368Y5472507D1*
X9873332Y5460434D1*
Y5442184D1*
X9879368Y5430110D1*
X9885405Y5423934D1*
X9903655Y5417897D1*
X9927941D1*
X9946051Y5423934D1*
X9952228Y5430110D1*
X9958264Y5442184D1*
Y5460434D1*
X9952228Y5472507D1*
X9940014Y5484720D1*
X9921905Y5490757D1*
X9897618Y5496793D1*
X9885405Y5502970D1*
X9879368Y5515043D1*
Y5527257D1*
X9885405Y5539330D1*
X9903655Y5545366D1*
X9927941D1*
X10150484Y4020507D2*
Y3892897D1*
X10193020Y4020507D2*
X10107947D1*
X10068732Y3953684D2*
X10013982D1*
X9995872Y3959720D1*
X9989695Y3965897D1*
X9983659Y3977970D1*
Y3996220D1*
X9989695Y4008293D1*
X9995872Y4014470D1*
X10013982Y4020507D1*
X10068732D1*
Y3892897D1*
X9865406Y3977970D2*
X9871583Y3959720D1*
X9883656Y3947507D1*
X9901906Y3941470D1*
X9907943D1*
X9926193Y3947507D1*
X9938266Y3959720D1*
X9944443Y3977970D1*
Y3984007D1*
X9938266Y4002257D1*
X9926193Y4014330D1*
X9907943Y4020366D1*
X9901906D1*
X9883656Y4014330D1*
X9871583Y4002257D1*
X9865406Y3977970D1*
Y3947507D1*
X9871583Y3917184D1*
X9883656Y3898934D1*
X9901906Y3892897D1*
X9913979D1*
X9932229Y3898934D1*
X9938266Y3911147D1*
X4063948Y3930960D2*
Y3803350D1*
X4106485Y3930960D2*
X4021412D1*
X3982196Y3864137D2*
X3927446D1*
X3909336Y3870173D1*
X3903160Y3876350D1*
X3897123Y3888423D1*
Y3906673D1*
X3903160Y3918746D1*
X3909336Y3924923D1*
X3927446Y3930960D1*
X3982196D1*
Y3803350D1*
X3857907Y3906533D2*
X3845694Y3912710D1*
X3827444Y3930820D1*
Y3803350D1*
X3751728Y3930820D2*
X3769978Y3924783D1*
X3782192Y3906533D1*
X3788228Y3876210D1*
Y3857960D1*
X3782192Y3827637D1*
X3769978Y3809387D1*
X3751728Y3803350D1*
X3739655D1*
X3721405Y3809387D1*
X3709332Y3827637D1*
X3703155Y3857960D1*
Y3876210D1*
X3709332Y3906533D1*
X3721405Y3924783D1*
X3739655Y3930820D1*
X3751728D1*
X3709332Y3906533D2*
X3782192Y3827637D1*
X3818057Y5286927D2*
X3945666D1*
X3818057Y5329463D2*
Y5244390D1*
X3884880Y5205175D2*
Y5150425D1*
X3878843Y5132315D1*
X3872666Y5126138D1*
X3860593Y5120102D1*
X3842343D1*
X3830270Y5126138D1*
X3824093Y5132315D1*
X3818057Y5150425D1*
Y5205175D1*
X3945666D1*
X3842484Y5080886D2*
X3836307Y5068673D1*
X3818197Y5050423D1*
X3945666D1*
X3842484Y5011207D2*
X3836307Y4998994D1*
X3818197Y4980744D1*
X3945666D1*
X5629058Y6551773D2*
Y6460664D1*
X5623021Y6442414D1*
X5610808Y6430341D1*
X5592558Y6424164D1*
X5580485D1*
X5562235Y6430341D1*
X5550021Y6442414D1*
X5543985Y6460664D1*
Y6551773D1*
X5498592Y6521310D2*
Y6527346D1*
X5492555Y6539560D1*
X5486519Y6545596D1*
X5474305Y6551633D1*
X5450019D1*
X5437946Y6545596D1*
X5431909Y6539560D1*
X5425732Y6527346D1*
Y6515273D1*
X5431909Y6503060D1*
X5443982Y6484950D1*
X5504769Y6424164D1*
X5419696D1*
X8137304Y5731237D2*
Y5640127D1*
X8131268Y5621877D1*
X8119054Y5609804D1*
X8100804Y5603627D1*
X8088731D1*
X8070481Y5609804D1*
X8058268Y5621877D1*
X8052231Y5640127D1*
Y5731237D1*
X8000802Y5731096D2*
X7934119D1*
X7970479Y5682523D1*
X7952229D1*
X7940156Y5676487D1*
X7934119Y5670450D1*
X7927942Y5652200D1*
Y5640127D1*
X7934119Y5621877D1*
X7946192Y5609664D1*
X7964442Y5603627D1*
X7982692D1*
X8000802Y5609664D1*
X8006839Y5615840D1*
X8013015Y5627914D1*
M02*
