M48
METRIC,0000.00
T01C0.5
T02C0.8
T03C1.0
T04C1.1
T05C1.2
T06C1.3
T07C1.5
T08C1.8
T09C2.5
T10C3.6
%
T02
X+010500Y+002977
X+010500Y+002723
T06
X+001400Y+005730
X+001400Y+004790
X+001780Y+005730
X+002160Y+005730
X+001780Y+004790
X+002160Y+004790
T07
X+003000Y+001740
X+003000Y+002660
X+002600Y+001740
X+002600Y+002660
T03
X+009680Y+003067
X+009680Y+002813
X+002191Y+001730
X+001937Y+001730
T09
X+011565Y+004808
T05
X+005125Y+001400
X+003875Y+001400
X+005125Y+001900
X+003875Y+001900
T08
X+004500Y+001200
X+004500Y+002100
T05
X+007125Y+001400
X+005875Y+001400
X+007125Y+001900
X+005875Y+001900
T08
X+006500Y+001200
X+006500Y+002100
T05
X+009125Y+001400
X+007875Y+001400
X+009125Y+001900
X+007875Y+001900
T08
X+008500Y+001200
X+008500Y+002100
T05
X+011125Y+005750
X+009875Y+005750
X+011125Y+006250
X+009875Y+006250
T08
X+010500Y+005550
X+010500Y+006450
T05
X+011125Y+003750
X+009875Y+003750
X+011125Y+004250
X+009875Y+004250
T08
X+010500Y+003550
X+010500Y+004450
T05
X+011125Y+001400
X+009875Y+001400
X+011125Y+001900
X+009875Y+001900
T08
X+010500Y+001200
X+010500Y+002100
T01
X+008477Y+004731
X+008477Y+004270
X+007588Y+004731
X+008017Y+004731
X+007064Y+004953
X+007064Y+004699
X+007064Y+004445
X+003413Y+006381
X+003905Y+006144
X+002206Y+006525
X+003397Y+004334
X+008587Y+003683
T04
X+009340Y+005439
X+009340Y+005185
X+009340Y+004931
X+009340Y+004677
X+009340Y+004423
X+009340Y+004169
X+009340Y+003915
X+009340Y+003661
T03
X+003413Y+005191
X+001238Y+001968
X+006890Y+005953
X+009680Y+004420
X+009680Y+004680
X+009680Y+004930
X+009680Y+005185
X+009675Y+005440
X+009680Y+003915
X+003905Y+003635
X+003909Y+005458
T04
X+002034Y+002240
X+001780Y+002240
X+001526Y+002240
T10
X+001780Y+004150
T03
X+006302Y+005969
X+006302Y+005461
X+006302Y+005207
X+006302Y+004953
X+006302Y+004699
X+006302Y+003937
X+006302Y+003683
X+004778Y+004191
X+004778Y+004445
X+004778Y+004699
X+004778Y+004953
X+004778Y+005207
X+004778Y+005461
X+004778Y+005715
X+004778Y+003429
X+006302Y+002921
X+004778Y+003683
X+004778Y+003937
X+004778Y+006223
X+004778Y+005969
X+006302Y+005715
X+004778Y+003175
X+006302Y+003175
X+004778Y+002921
X+006302Y+006223
X+006302Y+004191
X+006302Y+004445
X+004778Y+002667
X+006302Y+003429
X+006302Y+002667
T01
X+008587Y+003857
X+001175Y+004270
X+001175Y+004127
X+001175Y+003984
X+001365Y+004540
X+001540Y+004540
X+001968Y+004540
X+002365Y+004270
X+002365Y+004127
X+002365Y+003984
X+003032Y+001206
X+003191Y+001206
X+001778Y+002016
X+008635Y+002762
X+008635Y+002905
X+001778Y+002635
X+001778Y+002730
X+003841Y+002778
X+008223Y+005651
X+011556Y+004159
X+007302Y+003175
X+007588Y+005651
X+007842Y+004731
T00
M30
