G04 DipTrace 3.0.0.2*
G04 Top.gbr*
%MOMM*%
G04 #@! TF.FileFunction,Copper,L1,Top*
G04 #@! TF.Part,Single*
%AMOUTLINE0*5,1,8,0,0,1.32081,-112.50063*%
G04 #@! TA.AperFunction,CopperBalancing*
%ADD14C,0.33*%
G04 #@! TA.AperFunction,Conductor*
%ADD15C,0.5*%
G04 #@! TA.AperFunction,ViaPad*
%ADD16C,1.0*%
G04 #@! TA.AperFunction,Conductor*
%ADD17C,0.6*%
G04 #@! TA.AperFunction,CopperBalancing*
%ADD18C,0.635*%
%ADD19R,1.5X1.3*%
%ADD20R,1.3X1.5*%
%ADD25R,0.6X2.0*%
G04 #@! TA.AperFunction,ComponentPad*
%ADD27R,2.8X2.8*%
%ADD28C,2.8*%
%ADD29R,1.524X1.524*%
%ADD30C,1.524*%
%ADD32R,0.65X1.05*%
G04 #@! TA.AperFunction,ComponentPad*
%ADD36R,2.0X2.0*%
%ADD37C,2.0*%
%ADD38R,2.5X1.75*%
%ADD39O,2.5X1.75*%
%ADD40C,1.9*%
%ADD41R,1.9X1.9*%
%ADD42O,3.0X1.7*%
%ADD86OUTLINE0*%
%FSLAX35Y35*%
G04*
G71*
G90*
G75*
G01*
G04 Top*
%LPD*%
X6889627Y5953000D2*
D14*
X8366007D1*
X8477127Y5841880D1*
Y4730623D1*
X6302250Y4190873D2*
X7111877D1*
X7207127Y4286123D1*
Y5730750D1*
X7270627Y5794250D1*
X8159627D1*
X8223123Y5730753D1*
Y5651377D1*
X9875000Y1900000D2*
X11125000D1*
X3400000Y4500000D2*
Y4333750D1*
Y4189877D1*
X3395750Y4185627D1*
X3397127Y4333750D2*
X3400000D1*
X3000000Y2660000D2*
D16*
Y1740000D1*
X2160000Y5730000D2*
Y4790000D1*
Y4745373D1*
X2397000Y4508373D1*
X2532753D1*
D17*
X2538000Y4503127D1*
X2665000D1*
X2792000D1*
X2919000D1*
X3900000Y4010000D2*
D14*
Y3639793D1*
X3904820Y3634973D1*
X4778250Y3936873D2*
X4127377D1*
X4048000Y4016250D1*
X3906250D1*
X3900000Y4010000D1*
X4778250Y2920873D2*
X5699000D1*
X5857750Y3079623D1*
Y6429250D1*
X5937123Y6508623D1*
X9366127D1*
X9810627Y6064123D1*
X10604373D1*
X10747247Y5921250D1*
X11493373D1*
X11620373Y5794250D1*
X11826750D1*
X11985500Y5635500D1*
Y5095750D1*
X11906123Y5016373D1*
X11477503D1*
X11366377Y5127500D1*
Y5244177D1*
X11350000Y5227800D1*
X11565000Y4387800D2*
X11556877D1*
Y4159123D1*
X11555767Y4158793D2*
Y4378567D1*
X11565000Y4387800D1*
X11778627Y5619623D2*
Y5229173D1*
X11780000Y5227800D1*
X2919000Y3963127D2*
X3156377D1*
X3173000Y3979750D1*
X3466627D1*
X3490750Y3955627D1*
X4778250Y3682873D2*
X5667247D1*
X5778373Y3794000D1*
Y6492747D1*
X5873627Y6588000D1*
X9537000D1*
X9875000Y6250000D1*
X11125000D1*
X3590000Y4500000D2*
Y4189877D1*
X3585750Y4185627D1*
X3885627D1*
X3900000Y4200000D1*
X7302373Y3174873D2*
Y5603747D1*
X7350000Y5651373D1*
X7588123D1*
X1780000Y5730000D2*
Y4790000D1*
X9680000Y3067000D2*
Y3060123D1*
X9667750Y3047873D1*
X6048253D1*
X5953000Y3143127D1*
Y5111623D1*
X6064127Y5222750D1*
X6286373D1*
X6302250Y5206873D1*
X3875000Y1900000D2*
X5125000D1*
X7125000D2*
X5875000D1*
X7875000D2*
X9125000D1*
X7842123Y4730623D2*
Y4508377D1*
X7921500Y4429000D1*
X9334000D1*
X9340000Y4423000D1*
X9875000Y4250000D2*
X11125000D1*
X2538000Y3963127D2*
X2665000D1*
X2792000D1*
X2600000Y2660000D2*
D16*
Y3796913D1*
D15*
X2539877Y3857037D1*
D14*
Y3961250D1*
D17*
X2538000Y3963127D1*
X3173000Y4169750D2*
D14*
X2614000D1*
X2555750Y4111500D1*
Y3980877D1*
X2538000Y3963127D1*
X2600000Y3796913D2*
X2666700Y3863613D1*
Y3961427D1*
X2665000Y3963127D1*
X2600000Y3796913D2*
X2612667Y3809580D1*
X2730193D1*
X2777813Y3857200D1*
Y3948940D1*
X2792000Y3963127D1*
X2600000Y2660000D2*
D16*
Y1740000D1*
X3555607Y2412247D2*
D15*
Y2412727D1*
X6048103D1*
X6302250Y2666873D1*
X1526000Y2240000D2*
Y1918473D1*
X2095260Y1349213D1*
X3222267D1*
X3555607Y1682553D1*
Y2222247D1*
D16*
X8223123Y5651377D3*
X11555767Y4158793D3*
X7302373Y3174873D3*
X7588123Y5651373D3*
X7842123Y4730623D3*
X8477127D3*
Y4270250D3*
X7588127Y4730623D3*
X8016750D3*
X7064250Y4952873D3*
Y4698873D3*
Y4444873D3*
X3412747Y6381060D3*
X3905127Y6143500D3*
X2206500Y6524500D3*
X3397127Y4333750D3*
X8587453Y3682593D3*
Y3857200D3*
X1174607Y4269907D3*
Y4127047D3*
Y3984187D3*
X1365087Y4539753D3*
X1539693D3*
X1968273D3*
X2365107Y4269907D3*
Y4127047D3*
Y3984187D3*
X3031787Y1206353D3*
X3190520D3*
X1777793Y2015893D3*
X8635073Y2761940D3*
Y2904800D3*
X1777793Y2634953D3*
Y2730193D3*
X3841327Y2777813D3*
X1884147Y6639083D2*
D18*
X5799887D1*
X9610680D2*
X11415917D1*
X1884147Y6575917D2*
X5736760D1*
X9673933D2*
X10399420D1*
X10600637D2*
X11415917D1*
X1884147Y6512750D2*
X5690747D1*
X9737060D2*
X10349440D1*
X10650617D2*
X11415917D1*
X1884147Y6449583D2*
X5688267D1*
X9800190D2*
X10336417D1*
X10663640D2*
X11415917D1*
X1877573Y6386417D2*
X5688267D1*
X5947897D2*
X9363577D1*
X9978163D2*
X10349810D1*
X10650247D2*
X11021770D1*
X11228197D2*
X11422490D1*
X1868270Y6323250D2*
X4592397D1*
X4964143D2*
X5688267D1*
X5947897D2*
X6116397D1*
X6488143D2*
X9426707D1*
X11281773D2*
X11431793D1*
X1846193Y6260083D2*
X4559280D1*
X4997257D2*
X5688267D1*
X5947897D2*
X6083280D1*
X6521257D2*
X9489833D1*
X11298393D2*
X11453867D1*
X1817420Y6196917D2*
X4556800D1*
X4999613D2*
X5688267D1*
X5947897D2*
X6080800D1*
X6523613D2*
X9553083D1*
X11289960D2*
X11482517D1*
X1777733Y6133750D2*
X4583467D1*
X4973073D2*
X5688267D1*
X5947897D2*
X6107467D1*
X6497073D2*
X9616213D1*
X10657317D2*
X10998330D1*
X11251637D2*
X11522207D1*
X1719443Y6070583D2*
X4593513D1*
X4962903D2*
X5688267D1*
X5947897D2*
X6117513D1*
X6486903D2*
X6801003D1*
X6978160D2*
X9679340D1*
X10722677D2*
X11580497D1*
X1638827Y6007417D2*
X4559530D1*
X4996887D2*
X5688267D1*
X5947897D2*
X6083530D1*
X6520887D2*
X6750527D1*
X8436427D2*
X9742593D1*
X10785927D2*
X11661110D1*
X1500790Y5944250D2*
X2016923D1*
X2395493D2*
X4556553D1*
X4999863D2*
X5688267D1*
X5947897D2*
X6080553D1*
X6523863D2*
X6740110D1*
X8499557D2*
X10599470D1*
X11595180D2*
X11799273D1*
X1104100Y5881083D2*
X1631707D1*
X2457507D2*
X4582473D1*
X4974067D2*
X5688267D1*
X5947897D2*
X6106473D1*
X6498067D2*
X6759083D1*
X8557473D2*
X10662600D1*
X11658310D2*
X12195900D1*
X1104100Y5817917D2*
X1585943D1*
X2470403D2*
X4594753D1*
X4961787D2*
X5688267D1*
X5947897D2*
X6118753D1*
X6485787D2*
X6834863D1*
X6944427D2*
X7169480D1*
X8260810D2*
X8376350D1*
X8567273D2*
X11471850D1*
X11927937D2*
X12195900D1*
X1104100Y5754750D2*
X1567837D1*
X2470403D2*
X4559900D1*
X4996637D2*
X5688267D1*
X5947897D2*
X6083900D1*
X6520637D2*
X7120490D1*
X8309677D2*
X8387017D1*
X8567273D2*
X11450023D1*
X11991063D2*
X12195900D1*
X1104100Y5691583D2*
X1569943D1*
X2470403D2*
X4556430D1*
X5000110D2*
X5688267D1*
X5947897D2*
X6080430D1*
X6524110D2*
X7117017D1*
X7704690D2*
X8106600D1*
X8339690D2*
X8387017D1*
X8567273D2*
X10425093D1*
X10574840D2*
X11450023D1*
X12054067D2*
X12195900D1*
X1104100Y5628417D2*
X1593013D1*
X2470403D2*
X4581480D1*
X4974933D2*
X5688267D1*
X5947897D2*
X6105480D1*
X6498933D2*
X7117017D1*
X7709527D2*
X8101763D1*
X8344527D2*
X8386990D1*
X8567273D2*
X10357253D1*
X10642680D2*
X11450023D1*
X12075647D2*
X12195900D1*
X1104100Y5565250D2*
X1647830D1*
X2470403D2*
X3807327D1*
X4010280D2*
X4595993D1*
X4960547D2*
X5688267D1*
X5947897D2*
X6119993D1*
X6484547D2*
X7117017D1*
X7392523D2*
X7502110D1*
X7674057D2*
X8137110D1*
X8309057D2*
X8387017D1*
X8567273D2*
X9141327D1*
X9538623D2*
X9598600D1*
X9751323D2*
X10337160D1*
X10662897D2*
X11450023D1*
X12075647D2*
X12195900D1*
X1104100Y5502083D2*
X1689877D1*
X2470403D2*
X3765903D1*
X4051703D2*
X4560273D1*
X4996267D2*
X5688267D1*
X5947897D2*
X6084273D1*
X6520267D2*
X7117017D1*
X7392523D2*
X8387017D1*
X8567273D2*
X9141327D1*
X9810730D2*
X10343860D1*
X10656200D2*
X11450023D1*
X12075647D2*
X12195900D1*
X1104100Y5438917D2*
X1689877D1*
X2470403D2*
X3760197D1*
X4057407D2*
X4556180D1*
X5000357D2*
X5688267D1*
X5947897D2*
X6080180D1*
X6524357D2*
X7117017D1*
X7392523D2*
X8387017D1*
X8567273D2*
X9141327D1*
X9824870D2*
X10382307D1*
X10617753D2*
X11688520D1*
X12075647D2*
X12195900D1*
X1104100Y5375750D2*
X1689877D1*
X2470403D2*
X3784753D1*
X4032850D2*
X4580613D1*
X4975927D2*
X5688267D1*
X5947897D2*
X6104613D1*
X6499927D2*
X7117017D1*
X7392523D2*
X8387017D1*
X8567273D2*
X9141327D1*
X9809617D2*
X11176303D1*
X11523620D2*
X11606417D1*
X12075647D2*
X12195900D1*
X1104100Y5312583D2*
X1689877D1*
X2470403D2*
X3330457D1*
X3495583D2*
X4597233D1*
X4959183D2*
X5688267D1*
X5947897D2*
X6121233D1*
X6483183D2*
X7117017D1*
X7392523D2*
X8387017D1*
X8567273D2*
X9141327D1*
X9538623D2*
X9602693D1*
X9752067D2*
X11176303D1*
X11523620D2*
X11606417D1*
X12075647D2*
X12195900D1*
X1104100Y5249417D2*
X1689877D1*
X2470403D2*
X3275640D1*
X3550400D2*
X4560647D1*
X4995770D2*
X5688267D1*
X6519770D2*
X7117017D1*
X7392523D2*
X8387017D1*
X8567273D2*
X9155343D1*
X9814577D2*
X11176303D1*
X11523620D2*
X11606417D1*
X12075647D2*
X12195900D1*
X1104100Y5186250D2*
X1689877D1*
X2470403D2*
X3263237D1*
X3562803D2*
X4556057D1*
X5000483D2*
X5688267D1*
X6524483D2*
X7117017D1*
X7392523D2*
X8387017D1*
X8567273D2*
X9141327D1*
X9829830D2*
X11176303D1*
X11523620D2*
X11606417D1*
X12075647D2*
X12195900D1*
X1104100Y5123083D2*
X1689877D1*
X2470403D2*
X3280227D1*
X3545687D2*
X4579747D1*
X4976793D2*
X5688267D1*
X6500793D2*
X7117017D1*
X7392523D2*
X8387017D1*
X8567273D2*
X9154227D1*
X9815817D2*
X11176303D1*
X11523620D2*
X11606417D1*
X12075647D2*
X12195900D1*
X1104100Y5059917D2*
X1689877D1*
X2470403D2*
X3348317D1*
X3477723D2*
X4598597D1*
X4957943D2*
X5688267D1*
X6481943D2*
X7117017D1*
X7392523D2*
X8387017D1*
X8567273D2*
X9204950D1*
X9475000D2*
X9603313D1*
X9756657D2*
X11309133D1*
X12067587D2*
X12195900D1*
X1104100Y4996750D2*
X1689877D1*
X2977907D2*
X4561017D1*
X4995397D2*
X5688267D1*
X6519397D2*
X7117017D1*
X7392523D2*
X8387017D1*
X8567273D2*
X9155963D1*
X9813337D2*
X11372383D1*
X12011280D2*
X12195900D1*
X1104100Y4933583D2*
X1624143D1*
X3024790D2*
X4555810D1*
X5000607D2*
X5688267D1*
X6524607D2*
X7117017D1*
X7392523D2*
X8387017D1*
X8567273D2*
X9141327D1*
X9829830D2*
X11413190D1*
X11925207D2*
X12195900D1*
X1104100Y4870417D2*
X1582593D1*
X3026030D2*
X4578877D1*
X4977663D2*
X5688267D1*
X6501663D2*
X7117017D1*
X7392523D2*
X8387017D1*
X8567273D2*
X9153730D1*
X9816933D2*
X11376850D1*
X11753187D2*
X12195900D1*
X1104100Y4807250D2*
X1567093D1*
X3026153D2*
X4599960D1*
X4956577D2*
X5688267D1*
X6480577D2*
X7117017D1*
X7392523D2*
X7746933D1*
X7937233D2*
X8381933D1*
X8572233D2*
X9203213D1*
X9476860D2*
X9599347D1*
X9760627D2*
X11366307D1*
X11763603D2*
X12195900D1*
X1104100Y4744083D2*
X1571557D1*
X3026153D2*
X4561513D1*
X4995027D2*
X5688267D1*
X6519027D2*
X7117017D1*
X7392523D2*
X7719273D1*
X7965013D2*
X8354273D1*
X8600013D2*
X9156707D1*
X9814700D2*
X11377223D1*
X11752813D2*
X12195900D1*
X1104100Y4680917D2*
X1597353D1*
X3026153D2*
X4555683D1*
X5000853D2*
X5688267D1*
X6524853D2*
X7117017D1*
X7392523D2*
X7729570D1*
X7954720D2*
X8364570D1*
X8589720D2*
X9141450D1*
X9829830D2*
X11414180D1*
X11715857D2*
X12195900D1*
X1104100Y4617750D2*
X1658373D1*
X1901633D2*
X1979843D1*
X3026153D2*
X3261377D1*
X3728623D2*
X4578010D1*
X4978530D2*
X5688267D1*
X6502530D2*
X7117017D1*
X7392523D2*
X7752017D1*
X7932273D2*
X8438860D1*
X8515307D2*
X9153110D1*
X9815693D2*
X11529400D1*
X11600637D2*
X12195900D1*
X1104100Y4554583D2*
X2042970D1*
X3026277D2*
X3261377D1*
X3728623D2*
X4601327D1*
X4955213D2*
X5688267D1*
X6479213D2*
X7117017D1*
X7392523D2*
X7752017D1*
X7932273D2*
X9201480D1*
X9478597D2*
X9603933D1*
X9756037D2*
X10376230D1*
X10623830D2*
X11391360D1*
X11738677D2*
X12195900D1*
X1104100Y4491417D2*
X2117880D1*
X3022680D2*
X3261377D1*
X3728623D2*
X4561887D1*
X4994653D2*
X5688267D1*
X6518653D2*
X7117017D1*
X7392523D2*
X7753753D1*
X9810857D2*
X10341873D1*
X10658060D2*
X11391360D1*
X11738677D2*
X12195900D1*
X1104100Y4428250D2*
X2304907D1*
X3022680D2*
X3261377D1*
X3728623D2*
X4555560D1*
X5000980D2*
X5688267D1*
X6524980D2*
X7117017D1*
X7392523D2*
X7797410D1*
X9829583D2*
X10337907D1*
X10662153D2*
X11391360D1*
X11738677D2*
X12195900D1*
X1104100Y4365083D2*
X1623893D1*
X1936110D2*
X2434387D1*
X3022680D2*
X3261377D1*
X3728623D2*
X4577140D1*
X4979273D2*
X5688267D1*
X6503273D2*
X7117017D1*
X7392523D2*
X7861033D1*
X10002720D2*
X10361223D1*
X10638713D2*
X10997213D1*
X11252753D2*
X11391360D1*
X11738677D2*
X12195900D1*
X1104100Y4301917D2*
X1560147D1*
X1999860D2*
X3024367D1*
X3691910D2*
X3751393D1*
X4048603D2*
X4602690D1*
X4953850D2*
X5688267D1*
X6477850D2*
X7098167D1*
X7392523D2*
X9199743D1*
X9480333D2*
X9592153D1*
X11290330D2*
X11391360D1*
X11738677D2*
X12195900D1*
X1104100Y4238750D2*
X1527033D1*
X2032973D2*
X2560147D1*
X4048603D2*
X4562383D1*
X4994157D2*
X5688267D1*
X7392523D2*
X9157947D1*
X9522003D2*
X9701790D1*
X11298270D2*
X11391360D1*
X11738677D2*
X12195900D1*
X1104100Y4175583D2*
X1512770D1*
X2047237D2*
X2495037D1*
X4048603D2*
X4555437D1*
X5001103D2*
X5688267D1*
X7392523D2*
X9141450D1*
X9538500D2*
X9718780D1*
X11281153D2*
X11433280D1*
X11678153D2*
X12195900D1*
X1104100Y4112417D2*
X1514257D1*
X2045747D2*
X2434387D1*
X4048603D2*
X4576397D1*
X4980143D2*
X5688267D1*
X7392523D2*
X9152117D1*
X9527957D2*
X9773473D1*
X9976550D2*
X11023507D1*
X11226460D2*
X11441713D1*
X11669843D2*
X12195900D1*
X1104100Y4049250D2*
X1531747D1*
X2028260D2*
X2434387D1*
X3596910D2*
X3751393D1*
X4139760D2*
X4604177D1*
X4952360D2*
X5688267D1*
X7392523D2*
X9198130D1*
X9481947D2*
X9623033D1*
X9737060D2*
X11507447D1*
X11603987D2*
X12195900D1*
X1104100Y3986083D2*
X1569200D1*
X1990807D2*
X2434387D1*
X3596910D2*
X3751393D1*
X4993660D2*
X5688267D1*
X7392523D2*
X9158690D1*
X9810980D2*
X12195900D1*
X1104100Y3922917D2*
X1642870D1*
X1917137D2*
X2434387D1*
X3596910D2*
X3751393D1*
X5001227D2*
X5688267D1*
X7392523D2*
X9141577D1*
X9829583D2*
X12195900D1*
X1104100Y3859750D2*
X2434387D1*
X3321700D2*
X3384657D1*
X3596910D2*
X3809933D1*
X3990063D2*
X4088363D1*
X4980887D2*
X5688267D1*
X7392523D2*
X9151497D1*
X9818793D2*
X12195900D1*
X1104100Y3796583D2*
X2434387D1*
X3022680D2*
X3809933D1*
X3990063D2*
X4605543D1*
X4950873D2*
X5656143D1*
X7392523D2*
X9196517D1*
X9483557D2*
X9592650D1*
X9767447D2*
X12195900D1*
X1104100Y3733417D2*
X2476433D1*
X2771410D2*
X3794057D1*
X4015613D2*
X4563250D1*
X7392523D2*
X12195900D1*
X1104100Y3670250D2*
X2476433D1*
X2723660D2*
X3759330D1*
X4050213D2*
X4555190D1*
X7392523D2*
X10392227D1*
X10607707D2*
X12195900D1*
X1104100Y3607083D2*
X2476433D1*
X2723660D2*
X3757717D1*
X4051950D2*
X4574783D1*
X5709277D2*
X5767640D1*
X7392523D2*
X10347083D1*
X10652973D2*
X12195900D1*
X1104100Y3543917D2*
X2476433D1*
X2723660D2*
X3787607D1*
X4022060D2*
X4644610D1*
X4911930D2*
X5767640D1*
X7392523D2*
X10336417D1*
X10663517D2*
X12195900D1*
X1104100Y3480750D2*
X2476433D1*
X2723660D2*
X5767640D1*
X7392523D2*
X10352417D1*
X10647517D2*
X12195900D1*
X1104100Y3417583D2*
X2476433D1*
X2723660D2*
X5767640D1*
X7392523D2*
X10408723D1*
X10591210D2*
X12195900D1*
X1104100Y3354417D2*
X2476433D1*
X2723660D2*
X5767640D1*
X7392523D2*
X12195900D1*
X1104100Y3291250D2*
X2476433D1*
X2723660D2*
X4608643D1*
X4947773D2*
X5767640D1*
X7392523D2*
X12195900D1*
X1104100Y3228083D2*
X2476433D1*
X2723660D2*
X4564243D1*
X4992297D2*
X5767640D1*
X7413233D2*
X12195900D1*
X1104100Y3164917D2*
X2476433D1*
X2723660D2*
X4554940D1*
X5001600D2*
X5767640D1*
X7425637D2*
X9530140D1*
X9829830D2*
X12195900D1*
X1104100Y3101750D2*
X2476433D1*
X2723660D2*
X4573297D1*
X4983243D2*
X5755117D1*
X9829830D2*
X10446923D1*
X10553137D2*
X12195900D1*
X1104100Y3038583D2*
X2476433D1*
X2723660D2*
X4610253D1*
X4946283D2*
X5691863D1*
X9829830D2*
X10375980D1*
X10623953D2*
X12195900D1*
X1104100Y2975417D2*
X2476433D1*
X2723660D2*
X4564737D1*
X5878320D2*
X5999937D1*
X9829830D2*
X10365440D1*
X10634620D2*
X12195900D1*
X1104100Y2912250D2*
X2476433D1*
X2723660D2*
X4554817D1*
X5815193D2*
X10378213D1*
X10621843D2*
X12195900D1*
X1104100Y2849083D2*
X2476433D1*
X2723660D2*
X4572553D1*
X5748467D2*
X10461433D1*
X10538500D2*
X12195900D1*
X1104100Y2785917D2*
X2428930D1*
X2771037D2*
X4611867D1*
X4944547D2*
X6135867D1*
X6468547D2*
X12195900D1*
X1104100Y2722750D2*
X2396063D1*
X2803903D2*
X4565233D1*
X4991303D2*
X6089233D1*
X6515303D2*
X12195900D1*
X1104100Y2659583D2*
X2386390D1*
X2813700D2*
X4554817D1*
X5001723D2*
X6078817D1*
X6525723D2*
X12195900D1*
X1104100Y2596417D2*
X2396313D1*
X2803657D2*
X4571933D1*
X4984607D2*
X6094940D1*
X6508607D2*
X12195900D1*
X1104100Y2533250D2*
X2429673D1*
X2770417D2*
X3406980D1*
X3704190D2*
X4633820D1*
X4922597D2*
X6031810D1*
X6446597D2*
X12195900D1*
X1104100Y2470083D2*
X2476433D1*
X2723660D2*
X3406980D1*
X6242330D2*
X12195900D1*
X1104100Y2406917D2*
X2476433D1*
X2723660D2*
X3406980D1*
X6179077D2*
X12195900D1*
X1104100Y2343750D2*
X1357367D1*
X1694637D2*
X1902823D1*
X2165183D2*
X2476433D1*
X2723660D2*
X3406980D1*
X6115700D2*
X12195900D1*
X1104100Y2280583D2*
X1357367D1*
X1694637D2*
X1870577D1*
X2197430D2*
X2476433D1*
X2723660D2*
X3406980D1*
X3704190D2*
X12195900D1*
X1104100Y2217417D2*
X1357367D1*
X1694637D2*
X1866980D1*
X2201027D2*
X2476433D1*
X2723660D2*
X3406980D1*
X3704190D2*
X4388997D1*
X4611050D2*
X6389000D1*
X6611050D2*
X8389000D1*
X8611053D2*
X10389003D1*
X10611053D2*
X12195900D1*
X1104100Y2154250D2*
X1357367D1*
X1694637D2*
X1889923D1*
X2178080D2*
X2476433D1*
X2723660D2*
X3406980D1*
X3704190D2*
X4345960D1*
X4653960D2*
X6345963D1*
X6653963D2*
X8345963D1*
X8653963D2*
X10345967D1*
X10653967D2*
X12195900D1*
X1104100Y2091083D2*
X1157567D1*
X1318600D2*
X1357367D1*
X1694637D2*
X1963100D1*
X2104907D2*
X2476433D1*
X2723660D2*
X3406980D1*
X3704190D2*
X4336660D1*
X4663387D2*
X6336660D1*
X6663390D2*
X8336663D1*
X8663390D2*
X10336667D1*
X10663393D2*
X12195900D1*
X1374907Y2027917D2*
X1427440D1*
X1624563D2*
X2476433D1*
X2723660D2*
X3456960D1*
X3654207D2*
X3760820D1*
X3989197D2*
X4353900D1*
X4646147D2*
X5010850D1*
X5239103D2*
X5760820D1*
X5989197D2*
X6353900D1*
X6646150D2*
X7010853D1*
X7239107D2*
X7760823D1*
X7989200D2*
X8353903D1*
X8646150D2*
X9010853D1*
X9239107D2*
X9760823D1*
X9989200D2*
X10353903D1*
X10646153D2*
X11010857D1*
X11239110D2*
X12195900D1*
X1387927Y1964750D2*
X1427440D1*
X1624563D2*
X2476433D1*
X2723660D2*
X3456960D1*
X3654207D2*
X3714433D1*
X5285613D2*
X5714437D1*
X7285613D2*
X7714437D1*
X9285617D2*
X9714440D1*
X11285617D2*
X12195900D1*
X1371557Y1901583D2*
X1428930D1*
X1679753D2*
X2386390D1*
X2813700D2*
X3456960D1*
X3654207D2*
X3701410D1*
X5298633D2*
X5701413D1*
X7298637D2*
X7701417D1*
X9298640D2*
X9701417D1*
X11298640D2*
X12195900D1*
X1742883Y1838417D2*
X1835973D1*
X2340303D2*
X2386390D1*
X2813700D2*
X3456960D1*
X3654207D2*
X3713070D1*
X5286853D2*
X5713070D1*
X7286853D2*
X7713073D1*
X9286857D2*
X9713077D1*
X11286857D2*
X11749787D1*
X2340303Y1775250D2*
X2386390D1*
X2813700D2*
X3456960D1*
X3654207D2*
X3757223D1*
X3992793D2*
X5007130D1*
X5242823D2*
X5757223D1*
X5992793D2*
X7007133D1*
X7242827D2*
X7757227D1*
X7992797D2*
X9007133D1*
X9242827D2*
X9757227D1*
X9992797D2*
X11007137D1*
X11242830D2*
X11633577D1*
X2340303Y1712083D2*
X2386390D1*
X2813700D2*
X3448280D1*
X3654207D2*
X11563133D1*
X2340303Y1648917D2*
X2386390D1*
X2813700D2*
X3385150D1*
X3647883D2*
X11511417D1*
X1995520Y1585750D2*
X2386390D1*
X2813700D2*
X3322023D1*
X3595670D2*
X11471727D1*
X2058770Y1522583D2*
X3258770D1*
X3532417D2*
X11447790D1*
X2121897Y1459417D2*
X3195643D1*
X3469290D2*
X11427577D1*
X1879557Y1396250D2*
X1911330D1*
X3406160D2*
X11420507D1*
X1884147Y1333083D2*
X1974510D1*
X3342910D2*
X4409833D1*
X4590213D2*
X6409833D1*
X6590213D2*
X8409837D1*
X8590217D2*
X10409840D1*
X10590220D2*
X11415917D1*
X1884147Y1269917D2*
X2041730D1*
X3275813D2*
X4352783D1*
X4647263D2*
X6352783D1*
X6647267D2*
X8352787D1*
X8647267D2*
X10352787D1*
X10647270D2*
X11415917D1*
X1884147Y1206750D2*
X4336537D1*
X4663510D2*
X6336537D1*
X6663513D2*
X8336540D1*
X8663513D2*
X10336540D1*
X10663517D2*
X11415917D1*
X1884147Y1143583D2*
X4346830D1*
X4653217D2*
X6346830D1*
X6653220D2*
X8346833D1*
X8653220D2*
X10346833D1*
X10653223D2*
X11415917D1*
X10404693Y2890857D2*
X10384547Y2912173D1*
X10376820Y2925977D1*
X10372527Y2941200D1*
X10371697Y2951727D1*
X10372527Y3012800D1*
X10376820Y3028023D1*
X10384547Y3041827D1*
X10391407Y3049853D1*
X10435173Y3092453D1*
X10448977Y3100180D1*
X10464200Y3104473D1*
X10474727Y3105303D1*
X10535800Y3104473D1*
X10551023Y3100180D1*
X10564827Y3092453D1*
X10572853Y3085593D1*
X10615453Y3041827D1*
X10623180Y3028023D1*
X10627473Y3012800D1*
X10628303Y3002273D1*
X10627477Y2941200D1*
X10623180Y2925977D1*
X10615453Y2912173D1*
X10608593Y2904147D1*
X10564827Y2861547D1*
X10551023Y2853820D1*
X10535800Y2849523D1*
X10525273Y2848697D1*
X10464200Y2849523D1*
X10448977Y2853820D1*
X10435173Y2861547D1*
X10427147Y2868407D1*
X10404693Y2890857D1*
X1696227Y5540540D2*
X1671690Y5553257D1*
X1645377Y5572377D1*
X1622377Y5595377D1*
X1603257Y5621690D1*
X1588490Y5650673D1*
X1578437Y5681610D1*
X1573350Y5713737D1*
Y5746263D1*
X1578437Y5778390D1*
X1588490Y5809327D1*
X1603257Y5838310D1*
X1622377Y5864623D1*
X1645377Y5887623D1*
X1671690Y5906743D1*
X1700673Y5921510D1*
X1731610Y5931563D1*
X1763737Y5936650D1*
X1796263D1*
X1828390Y5931563D1*
X1859327Y5921510D1*
X1888310Y5906743D1*
X1914623Y5887623D1*
X1937623Y5864623D1*
X1949220Y5849570D1*
X1952003Y5862667D1*
X1958627Y5877033D1*
X1968420Y5889453D1*
X2039947Y5959813D1*
X2053750Y5967540D1*
X2068973Y5971837D1*
X2079637Y5972663D1*
X2338777Y5971933D1*
X2354283Y5968813D1*
X2368633Y5962163D1*
X2381583Y5951753D1*
X2448020Y5885067D1*
X2456810Y5871917D1*
X2462283Y5857077D1*
X2464110Y5840520D1*
X2464143Y5059647D1*
X2488197Y5035647D1*
X2910080Y5035417D1*
X2925593Y5032330D1*
X2939960Y5025707D1*
X2952957Y5015293D1*
X3003587Y4964413D1*
X3012377Y4951263D1*
X3017850Y4936423D1*
X3019677Y4919867D1*
X3019713Y4550760D1*
X3016287Y4534293D1*
X3016290Y4335837D1*
X2440710D1*
Y4391027D1*
X2387797Y4391443D1*
X2369620Y4394323D1*
X2352113Y4400010D1*
X2335717Y4408367D1*
X2320827Y4419187D1*
X2250833Y4488667D1*
X2137720Y4488913D1*
X2122207Y4492000D1*
X2107840Y4498623D1*
X2094843Y4509037D1*
X1964830Y4639300D1*
X1956043Y4652450D1*
X1950363Y4668323D1*
X1947700Y4668157D1*
X1926577Y4643423D1*
X1901843Y4622300D1*
X1874107Y4605303D1*
X1844057Y4592857D1*
X1812427Y4585263D1*
X1780000Y4582710D1*
X1747573Y4585263D1*
X1715943Y4592857D1*
X1685893Y4605303D1*
X1658157Y4622300D1*
X1633423Y4643423D1*
X1612300Y4668157D1*
X1595303Y4695893D1*
X1582857Y4725943D1*
X1575263Y4757573D1*
X1572710Y4790000D1*
X1575263Y4822427D1*
X1582857Y4854057D1*
X1595303Y4884107D1*
X1612300Y4911843D1*
X1633423Y4936577D1*
X1658157Y4957700D1*
X1685893Y4974697D1*
X1696227Y4979460D1*
X1696210Y5540467D1*
X2424460Y1947290D2*
X2482627D1*
X2482710Y2488977D1*
X2465377Y2502377D1*
X2442377Y2525377D1*
X2423257Y2551690D1*
X2408490Y2580673D1*
X2398437Y2611610D1*
X2393350Y2643737D1*
Y2676263D1*
X2398437Y2708390D1*
X2408490Y2739327D1*
X2423257Y2768310D1*
X2442377Y2794623D1*
X2465377Y2817623D1*
X2482757Y2830773D1*
X2482710Y3783780D1*
X2470870Y3795830D1*
X2440710Y3795837D1*
Y4130417D1*
X2474273Y4131060D1*
X2481093Y4149540D1*
X2492037Y4165917D1*
X2559583Y4233463D1*
X2575960Y4244407D1*
X2594440Y4251227D1*
X2614000Y4253540D1*
X2614847Y4253507D1*
X3030593Y4253540D1*
X3030710Y4302040D1*
X3296060D1*
X3295960Y4305417D1*
X3506177D1*
X3506210Y4357680D1*
X3267710Y4357710D1*
Y4642290D1*
X3722290D1*
Y4357710D1*
X3673797D1*
X3673790Y4305407D1*
X3685540Y4305417D1*
Y4269327D1*
X3757770Y4269417D1*
X3757710Y4332290D1*
X4042290D1*
Y4099993D1*
X4061107Y4099010D1*
X4080067Y4093663D1*
X4097250Y4084037D1*
X4107250Y4075500D1*
X4162060Y4020687D1*
X4586140Y4020663D1*
X4597447Y4035777D1*
X4614347Y4052677D1*
X4629290Y4063790D1*
X4614347Y4075070D1*
X4597447Y4091970D1*
X4583400Y4111303D1*
X4572553Y4132593D1*
X4565167Y4155323D1*
X4561430Y4178923D1*
Y4202823D1*
X4565167Y4226423D1*
X4572553Y4249153D1*
X4583400Y4270443D1*
X4597447Y4289777D1*
X4614347Y4306677D1*
X4629290Y4317790D1*
X4614347Y4329070D1*
X4597447Y4345970D1*
X4583400Y4365303D1*
X4572553Y4386593D1*
X4565167Y4409323D1*
X4561430Y4432923D1*
Y4456823D1*
X4565167Y4480423D1*
X4572553Y4503153D1*
X4583400Y4524443D1*
X4597447Y4543777D1*
X4614347Y4560677D1*
X4629290Y4571790D1*
X4614347Y4583070D1*
X4597447Y4599970D1*
X4583400Y4619303D1*
X4572553Y4640593D1*
X4565167Y4663323D1*
X4561430Y4686923D1*
Y4710823D1*
X4565167Y4734423D1*
X4572553Y4757153D1*
X4583400Y4778443D1*
X4597447Y4797777D1*
X4614347Y4814677D1*
X4629290Y4825790D1*
X4614347Y4837070D1*
X4597447Y4853970D1*
X4583400Y4873303D1*
X4572553Y4894593D1*
X4565167Y4917323D1*
X4561430Y4940923D1*
Y4964823D1*
X4565167Y4988423D1*
X4572553Y5011153D1*
X4583400Y5032443D1*
X4597447Y5051777D1*
X4614347Y5068677D1*
X4629290Y5079790D1*
X4614347Y5091070D1*
X4597447Y5107970D1*
X4583400Y5127303D1*
X4572553Y5148593D1*
X4565167Y5171323D1*
X4561430Y5194923D1*
Y5218823D1*
X4565167Y5242423D1*
X4572553Y5265153D1*
X4583400Y5286443D1*
X4597447Y5305777D1*
X4614347Y5322677D1*
X4629290Y5333790D1*
X4614347Y5345070D1*
X4597447Y5361970D1*
X4583400Y5381303D1*
X4572553Y5402593D1*
X4565167Y5425323D1*
X4561430Y5448923D1*
Y5472823D1*
X4565167Y5496423D1*
X4572553Y5519153D1*
X4583400Y5540443D1*
X4597447Y5559777D1*
X4614347Y5576677D1*
X4629290Y5587790D1*
X4614347Y5599070D1*
X4597447Y5615970D1*
X4583400Y5635303D1*
X4572553Y5656593D1*
X4565167Y5679323D1*
X4561430Y5702923D1*
Y5726823D1*
X4565167Y5750423D1*
X4572553Y5773153D1*
X4583400Y5794443D1*
X4597447Y5813777D1*
X4614347Y5830677D1*
X4629290Y5841790D1*
X4614347Y5853070D1*
X4597447Y5869970D1*
X4583400Y5889303D1*
X4572553Y5910593D1*
X4565167Y5933323D1*
X4561430Y5956923D1*
Y5980823D1*
X4565167Y6004423D1*
X4572553Y6027153D1*
X4583400Y6048443D1*
X4597447Y6067777D1*
X4614347Y6084677D1*
X4629290Y6095790D1*
X4614347Y6107070D1*
X4597447Y6123970D1*
X4583400Y6143303D1*
X4572553Y6164593D1*
X4565167Y6187323D1*
X4561430Y6210923D1*
Y6234823D1*
X4565167Y6258423D1*
X4572553Y6281153D1*
X4583400Y6302443D1*
X4597447Y6321777D1*
X4614347Y6338677D1*
X4633680Y6352723D1*
X4654970Y6363570D1*
X4677700Y6370957D1*
X4701300Y6374693D1*
X4840250Y6375163D1*
X4867073Y6373290D1*
X4890310Y6367710D1*
X4912387Y6358563D1*
X4932763Y6346080D1*
X4950937Y6330560D1*
X4966457Y6312387D1*
X4978940Y6292010D1*
X4988087Y6269933D1*
X4993667Y6246697D1*
X4995540Y6222873D1*
X4993667Y6199050D1*
X4988087Y6175813D1*
X4978940Y6153737D1*
X4966457Y6133360D1*
X4950937Y6115187D1*
X4932763Y6099667D1*
X4927210Y6095957D1*
X4942153Y6084677D1*
X4959053Y6067777D1*
X4973100Y6048443D1*
X4983947Y6027153D1*
X4991333Y6004423D1*
X4995070Y5980823D1*
Y5956923D1*
X4991333Y5933323D1*
X4983947Y5910593D1*
X4973100Y5889303D1*
X4959053Y5869970D1*
X4942153Y5853070D1*
X4927210Y5841957D1*
X4942153Y5830677D1*
X4959053Y5813777D1*
X4973100Y5794443D1*
X4983947Y5773153D1*
X4991333Y5750423D1*
X4995070Y5726823D1*
Y5702923D1*
X4991333Y5679323D1*
X4983947Y5656593D1*
X4973100Y5635303D1*
X4959053Y5615970D1*
X4942153Y5599070D1*
X4927210Y5587957D1*
X4942153Y5576677D1*
X4959053Y5559777D1*
X4973100Y5540443D1*
X4983947Y5519153D1*
X4991333Y5496423D1*
X4995070Y5472823D1*
Y5448923D1*
X4991333Y5425323D1*
X4983947Y5402593D1*
X4973100Y5381303D1*
X4959053Y5361970D1*
X4942153Y5345070D1*
X4927210Y5333957D1*
X4942153Y5322677D1*
X4959053Y5305777D1*
X4973100Y5286443D1*
X4983947Y5265153D1*
X4991333Y5242423D1*
X4995070Y5218823D1*
Y5194923D1*
X4991333Y5171323D1*
X4983947Y5148593D1*
X4973100Y5127303D1*
X4959053Y5107970D1*
X4942153Y5091070D1*
X4927210Y5079957D1*
X4942153Y5068677D1*
X4959053Y5051777D1*
X4973100Y5032443D1*
X4983947Y5011153D1*
X4991333Y4988423D1*
X4995070Y4964823D1*
Y4940923D1*
X4991333Y4917323D1*
X4983947Y4894593D1*
X4973100Y4873303D1*
X4959053Y4853970D1*
X4942153Y4837070D1*
X4927210Y4825957D1*
X4942153Y4814677D1*
X4959053Y4797777D1*
X4973100Y4778443D1*
X4983947Y4757153D1*
X4991333Y4734423D1*
X4995070Y4710823D1*
Y4686923D1*
X4991333Y4663323D1*
X4983947Y4640593D1*
X4973100Y4619303D1*
X4959053Y4599970D1*
X4942153Y4583070D1*
X4927210Y4571957D1*
X4942153Y4560677D1*
X4959053Y4543777D1*
X4973100Y4524443D1*
X4983947Y4503153D1*
X4991333Y4480423D1*
X4995070Y4456823D1*
Y4432923D1*
X4991333Y4409323D1*
X4983947Y4386593D1*
X4973100Y4365303D1*
X4959053Y4345970D1*
X4942153Y4329070D1*
X4927210Y4317957D1*
X4942153Y4306677D1*
X4959053Y4289777D1*
X4973100Y4270443D1*
X4983947Y4249153D1*
X4991333Y4226423D1*
X4995070Y4202823D1*
Y4178923D1*
X4991333Y4155323D1*
X4983947Y4132593D1*
X4973100Y4111303D1*
X4959053Y4091970D1*
X4942153Y4075070D1*
X4927210Y4063957D1*
X4942153Y4052677D1*
X4959053Y4035777D1*
X4973100Y4016443D1*
X4983947Y3995153D1*
X4991333Y3972423D1*
X4995070Y3948823D1*
Y3924923D1*
X4991333Y3901323D1*
X4983947Y3878593D1*
X4973100Y3857303D1*
X4959053Y3837970D1*
X4942153Y3821070D1*
X4927210Y3809957D1*
X4942153Y3798677D1*
X4959053Y3781777D1*
X4970323Y3766600D1*
X5632647Y3766663D1*
X5694557Y3828680D1*
X5694840Y6499320D1*
X5698683Y6518640D1*
X5706930Y6536527D1*
X5719123Y6551997D1*
X5719747Y6552570D1*
X5819210Y6651713D1*
X5835587Y6662657D1*
X5854067Y6669477D1*
X5873627Y6671790D1*
X5874473Y6671757D1*
X9543573Y6671533D1*
X9562893Y6667690D1*
X9580780Y6659443D1*
X9596250Y6647250D1*
X9596823Y6646627D1*
X9831893Y6411603D1*
X9848830Y6415230D1*
X9875000Y6417290D1*
X9901170Y6415230D1*
X9926697Y6409103D1*
X9950947Y6399057D1*
X9973330Y6385340D1*
X9993293Y6368293D1*
X10010340Y6348330D1*
X10019670Y6333783D1*
X10394037Y6333790D1*
X10380397Y6347847D1*
X10365887Y6367817D1*
X10354683Y6389807D1*
X10347057Y6413280D1*
X10343193Y6437660D1*
Y6462340D1*
X10347057Y6486720D1*
X10354683Y6510193D1*
X10365887Y6532183D1*
X10380397Y6552153D1*
X10397847Y6569603D1*
X10417817Y6584113D1*
X10439807Y6595317D1*
X10463280Y6602943D1*
X10487660Y6606807D1*
X10512340D1*
X10536720Y6602943D1*
X10560193Y6595317D1*
X10582183Y6584113D1*
X10602153Y6569603D1*
X10619603Y6552153D1*
X10634113Y6532183D1*
X10645317Y6510193D1*
X10652943Y6486720D1*
X10656807Y6462340D1*
Y6437660D1*
X10652943Y6413280D1*
X10645317Y6389807D1*
X10634113Y6367817D1*
X10619603Y6347847D1*
X10605800Y6333770D1*
X10980173Y6333790D1*
X10989660Y6348330D1*
X11006707Y6368293D1*
X11026670Y6385340D1*
X11049053Y6399057D1*
X11073303Y6409103D1*
X11098830Y6415230D1*
X11125000Y6417290D1*
X11151170Y6415230D1*
X11176697Y6409103D1*
X11200947Y6399057D1*
X11223330Y6385340D1*
X11243293Y6368293D1*
X11260340Y6348330D1*
X11274057Y6325947D1*
X11284103Y6301697D1*
X11290230Y6276170D1*
X11292290Y6250000D1*
X11290230Y6223830D1*
X11284103Y6198303D1*
X11274057Y6174053D1*
X11260340Y6151670D1*
X11243293Y6131707D1*
X11223330Y6114660D1*
X11200947Y6100943D1*
X11176697Y6090897D1*
X11151170Y6084770D1*
X11125000Y6082710D1*
X11098830Y6084770D1*
X11073303Y6090897D1*
X11049053Y6100943D1*
X11026670Y6114660D1*
X11006707Y6131707D1*
X10989660Y6151670D1*
X10980330Y6166217D1*
X10019827Y6166210D1*
X10007323Y6147840D1*
X10610947Y6147657D1*
X10630267Y6143813D1*
X10648153Y6135567D1*
X10663623Y6123373D1*
X10664197Y6122750D1*
X10781927Y6005067D1*
X11499947Y6004783D1*
X11519267Y6000940D1*
X11537153Y5992693D1*
X11552623Y5980500D1*
X11553197Y5979877D1*
X11655140Y5877980D1*
X11833323Y5877783D1*
X11852643Y5873940D1*
X11870530Y5865693D1*
X11886000Y5853500D1*
X11886573Y5852877D1*
X12049213Y5689917D1*
X12060157Y5673540D1*
X12066977Y5655060D1*
X12069290Y5635500D1*
X12069257Y5634653D1*
X12069033Y5089177D1*
X12065190Y5069857D1*
X12056943Y5051970D1*
X12044750Y5036500D1*
X12044127Y5035927D1*
X11960540Y4952660D1*
X11944163Y4941717D1*
X11925683Y4934897D1*
X11906123Y4932583D1*
X11905277Y4932617D1*
X11711283Y4932583D1*
X11728953Y4908270D1*
X11742653Y4881387D1*
X11751977Y4852690D1*
X11756697Y4822887D1*
Y4792713D1*
X11751977Y4762910D1*
X11742653Y4734213D1*
X11728953Y4707330D1*
X11711220Y4682917D1*
X11689883Y4661580D1*
X11665470Y4643847D1*
X11638587Y4630147D1*
X11609890Y4620823D1*
X11580087Y4616103D1*
X11549913D1*
X11520110Y4620823D1*
X11491413Y4630147D1*
X11464530Y4643847D1*
X11440117Y4661580D1*
X11418780Y4682917D1*
X11401047Y4707330D1*
X11387347Y4734213D1*
X11378023Y4762910D1*
X11373303Y4792713D1*
Y4822887D1*
X11378023Y4852690D1*
X11387347Y4881387D1*
X11401047Y4908270D1*
X11418780Y4932683D1*
X11431673Y4946213D1*
X11418253Y4957123D1*
X11314873Y5060503D1*
X11182710Y5060510D1*
Y5395090D1*
X11517290D1*
Y5100037D1*
X11612813Y5100163D1*
X11612710Y5395090D1*
X11694937D1*
X11694837Y5477343D1*
X11456337Y5477333D1*
Y5761913D1*
X11534250D1*
X11458607Y5837520D1*
X10740673Y5837717D1*
X10721353Y5841560D1*
X10703467Y5849807D1*
X10687997Y5862000D1*
X10687423Y5862623D1*
X10569693Y5980307D1*
X9804053Y5980590D1*
X9784733Y5984433D1*
X9766847Y5992680D1*
X9751377Y6004873D1*
X9750803Y6005497D1*
X9331393Y6424860D1*
X5971730Y6424833D1*
X5941560Y6394563D1*
X5941540Y5218657D1*
X6009710Y5286463D1*
X6026087Y5297407D1*
X6044567Y5304227D1*
X6064127Y5306540D1*
X6064973Y5306507D1*
X6122047Y5306540D1*
X6138347Y5322677D1*
X6153290Y5333790D1*
X6138347Y5345070D1*
X6121447Y5361970D1*
X6107400Y5381303D1*
X6096553Y5402593D1*
X6089167Y5425323D1*
X6085430Y5448923D1*
Y5472823D1*
X6089167Y5496423D1*
X6096553Y5519153D1*
X6107400Y5540443D1*
X6121447Y5559777D1*
X6138347Y5576677D1*
X6153290Y5587790D1*
X6138347Y5599070D1*
X6121447Y5615970D1*
X6107400Y5635303D1*
X6096553Y5656593D1*
X6089167Y5679323D1*
X6085430Y5702923D1*
Y5726823D1*
X6089167Y5750423D1*
X6096553Y5773153D1*
X6107400Y5794443D1*
X6121447Y5813777D1*
X6138347Y5830677D1*
X6153290Y5841790D1*
X6138347Y5853070D1*
X6121447Y5869970D1*
X6107400Y5889303D1*
X6096553Y5910593D1*
X6089167Y5933323D1*
X6085430Y5956923D1*
Y5980823D1*
X6089167Y6004423D1*
X6096553Y6027153D1*
X6107400Y6048443D1*
X6121447Y6067777D1*
X6138347Y6084677D1*
X6153290Y6095790D1*
X6138347Y6107070D1*
X6121447Y6123970D1*
X6107400Y6143303D1*
X6096553Y6164593D1*
X6089167Y6187323D1*
X6085430Y6210923D1*
Y6234823D1*
X6089167Y6258423D1*
X6096553Y6281153D1*
X6107400Y6302443D1*
X6121447Y6321777D1*
X6138347Y6338677D1*
X6157680Y6352723D1*
X6178970Y6363570D1*
X6201700Y6370957D1*
X6225300Y6374693D1*
X6364250Y6375163D1*
X6379200Y6374693D1*
X6402800Y6370957D1*
X6425530Y6363570D1*
X6446820Y6352723D1*
X6466153Y6338677D1*
X6483053Y6321777D1*
X6497100Y6302443D1*
X6507947Y6281153D1*
X6515333Y6258423D1*
X6519070Y6234823D1*
Y6210923D1*
X6515333Y6187323D1*
X6507947Y6164593D1*
X6497100Y6143303D1*
X6483053Y6123970D1*
X6466153Y6107070D1*
X6451210Y6095957D1*
X6466153Y6084677D1*
X6483053Y6067777D1*
X6497100Y6048443D1*
X6507947Y6027153D1*
X6515333Y6004423D1*
X6519070Y5980823D1*
Y5956923D1*
X6515333Y5933323D1*
X6507947Y5910593D1*
X6497100Y5889303D1*
X6483053Y5869970D1*
X6466153Y5853070D1*
X6451210Y5841957D1*
X6466153Y5830677D1*
X6483053Y5813777D1*
X6497100Y5794443D1*
X6507947Y5773153D1*
X6515333Y5750423D1*
X6519070Y5726823D1*
Y5702923D1*
X6515333Y5679323D1*
X6507947Y5656593D1*
X6497100Y5635303D1*
X6483053Y5615970D1*
X6466153Y5599070D1*
X6451210Y5587957D1*
X6466153Y5576677D1*
X6483053Y5559777D1*
X6497100Y5540443D1*
X6507947Y5519153D1*
X6515333Y5496423D1*
X6519070Y5472823D1*
Y5448923D1*
X6515333Y5425323D1*
X6507947Y5402593D1*
X6497100Y5381303D1*
X6483053Y5361970D1*
X6466153Y5345070D1*
X6451210Y5333957D1*
X6466153Y5322677D1*
X6483053Y5305777D1*
X6497100Y5286443D1*
X6507947Y5265153D1*
X6515333Y5242423D1*
X6519070Y5218823D1*
Y5194923D1*
X6515333Y5171323D1*
X6507947Y5148593D1*
X6497100Y5127303D1*
X6483053Y5107970D1*
X6466153Y5091070D1*
X6451210Y5079957D1*
X6466153Y5068677D1*
X6483053Y5051777D1*
X6497100Y5032443D1*
X6507947Y5011153D1*
X6515333Y4988423D1*
X6519070Y4964823D1*
Y4940923D1*
X6515333Y4917323D1*
X6507947Y4894593D1*
X6497100Y4873303D1*
X6483053Y4853970D1*
X6466153Y4837070D1*
X6451210Y4825957D1*
X6466153Y4814677D1*
X6483053Y4797777D1*
X6497100Y4778443D1*
X6507947Y4757153D1*
X6515333Y4734423D1*
X6519070Y4710823D1*
Y4686923D1*
X6515333Y4663323D1*
X6507947Y4640593D1*
X6497100Y4619303D1*
X6483053Y4599970D1*
X6466153Y4583070D1*
X6451210Y4571957D1*
X6466153Y4560677D1*
X6483053Y4543777D1*
X6497100Y4524443D1*
X6507947Y4503153D1*
X6515333Y4480423D1*
X6519070Y4456823D1*
Y4432923D1*
X6515333Y4409323D1*
X6507947Y4386593D1*
X6497100Y4365303D1*
X6483053Y4345970D1*
X6466153Y4329070D1*
X6451210Y4317957D1*
X6466153Y4306677D1*
X6483053Y4289777D1*
X6494323Y4274600D1*
X7077273Y4274663D1*
X7123400Y4320893D1*
X7123593Y5737323D1*
X7127437Y5756643D1*
X7135683Y5774530D1*
X7147877Y5790000D1*
X7148500Y5790573D1*
X7216210Y5857963D1*
X7232587Y5868907D1*
X7233310Y5869240D1*
X7232587Y5868907D1*
X7159507Y5869210D1*
X7005713Y5868660D1*
X6991090Y5851537D1*
X6973967Y5836913D1*
X6954770Y5825150D1*
X6933967Y5816533D1*
X6912073Y5811277D1*
X6889627Y5809510D1*
X6867180Y5811277D1*
X6845287Y5816533D1*
X6824483Y5825150D1*
X6805287Y5836913D1*
X6788163Y5851537D1*
X6773540Y5868660D1*
X6761777Y5887857D1*
X6753160Y5908660D1*
X6747903Y5930553D1*
X6746137Y5953000D1*
X6747903Y5975447D1*
X6753160Y5997340D1*
X6761777Y6018143D1*
X6773540Y6037340D1*
X6788163Y6054463D1*
X6805287Y6069087D1*
X6824483Y6080850D1*
X6845287Y6089467D1*
X6867180Y6094723D1*
X6889627Y6096490D1*
X6912073Y6094723D1*
X6933967Y6089467D1*
X6954770Y6080850D1*
X6973967Y6069087D1*
X6991090Y6054463D1*
X7006080Y6036793D1*
X8372580Y6036533D1*
X8391900Y6032690D1*
X8409787Y6024443D1*
X8425257Y6012250D1*
X8425830Y6011627D1*
X8540840Y5896297D1*
X8551783Y5879920D1*
X8558600Y5861440D1*
X8560917Y5841880D1*
X8560883Y5841033D1*
X8560917Y4812610D1*
X8572017Y4799563D1*
X8581633Y4783873D1*
X8588677Y4766867D1*
X8592973Y4748970D1*
X8594417Y4730623D1*
X8592973Y4712277D1*
X8588677Y4694380D1*
X8581633Y4677373D1*
X8572017Y4661683D1*
X8560063Y4647687D1*
X8546067Y4635733D1*
X8530377Y4626117D1*
X8513370Y4619073D1*
X8495473Y4614777D1*
X8477127Y4613333D1*
X8458780Y4614777D1*
X8440883Y4619073D1*
X8423877Y4626117D1*
X8408187Y4635733D1*
X8394190Y4647687D1*
X8382237Y4661683D1*
X8372620Y4677373D1*
X8365577Y4694380D1*
X8361280Y4712277D1*
X8359837Y4730623D1*
X8361280Y4748970D1*
X8365577Y4766867D1*
X8372620Y4783873D1*
X8382237Y4799563D1*
X8393383Y4812687D1*
X8393337Y5807270D1*
X8331320Y5869190D1*
X8197667Y5868907D1*
X8214043Y5857963D1*
X8286837Y5785170D1*
X8297780Y5768793D1*
X8304600Y5750313D1*
X8306693Y5736327D1*
X8323130Y5712660D1*
X8331487Y5696260D1*
X8337173Y5678757D1*
X8340053Y5660580D1*
Y5642173D1*
X8337173Y5623997D1*
X8331487Y5606493D1*
X8323130Y5590093D1*
X8312310Y5575203D1*
X8299297Y5562190D1*
X8284407Y5551370D1*
X8268007Y5543013D1*
X8250503Y5537327D1*
X8232327Y5534447D1*
X8213920D1*
X8195743Y5537327D1*
X8178240Y5543013D1*
X8161840Y5551370D1*
X8146950Y5562190D1*
X8133937Y5575203D1*
X8123117Y5590093D1*
X8114760Y5606493D1*
X8109073Y5623997D1*
X8106193Y5642173D1*
Y5660580D1*
X8109073Y5678757D1*
X8114760Y5696260D1*
X8121903Y5710493D1*
X7689453Y5710460D1*
X7696487Y5696257D1*
X7702173Y5678753D1*
X7705053Y5660577D1*
Y5642170D1*
X7702173Y5623993D1*
X7696487Y5606490D1*
X7688130Y5590090D1*
X7677310Y5575200D1*
X7664297Y5562187D1*
X7649407Y5551367D1*
X7633007Y5543010D1*
X7615503Y5537323D1*
X7597327Y5534443D1*
X7578920D1*
X7560743Y5537323D1*
X7543240Y5543010D1*
X7526840Y5551367D1*
X7511950Y5562187D1*
X7506060Y5567630D1*
X7386090Y5567583D1*
X7386163Y3256850D1*
X7397263Y3243813D1*
X7406880Y3228123D1*
X7413923Y3211117D1*
X7418220Y3193220D1*
X7419663Y3174873D1*
X7418220Y3156527D1*
X7413923Y3138630D1*
X7411347Y3131643D1*
X9536413Y3131663D1*
X9536510Y3210490D1*
X9823490D1*
Y2923510D1*
X9536510D1*
Y2964067D1*
X6041680Y2964340D1*
X6022360Y2968183D1*
X6004473Y2976430D1*
X5989003Y2988623D1*
X5988430Y2989247D1*
X5933493Y3044137D1*
X5925537Y3030373D1*
X5917000Y3020373D1*
X5753417Y2857160D1*
X5737040Y2846217D1*
X5718560Y2839397D1*
X5699000Y2837083D1*
X5698153Y2837117D1*
X4970363Y2837083D1*
X4959053Y2821970D1*
X4942153Y2805070D1*
X4927210Y2793957D1*
X4942153Y2782677D1*
X4959053Y2765777D1*
X4973100Y2746443D1*
X4983947Y2725153D1*
X4991333Y2702423D1*
X4995070Y2678823D1*
Y2654923D1*
X4991333Y2631323D1*
X4983947Y2608593D1*
X4973100Y2587303D1*
X4959053Y2567970D1*
X4942153Y2551070D1*
X4922820Y2537023D1*
X4901530Y2526177D1*
X4878800Y2518790D1*
X4855200Y2515053D1*
X4716250Y2514583D1*
X4701300Y2515053D1*
X4677700Y2518790D1*
X4654970Y2526177D1*
X4633680Y2537023D1*
X4614347Y2551070D1*
X4597447Y2567970D1*
X4583400Y2587303D1*
X4572553Y2608593D1*
X4565167Y2631323D1*
X4561430Y2654923D1*
Y2678823D1*
X4565167Y2702423D1*
X4572553Y2725153D1*
X4583400Y2746443D1*
X4597447Y2765777D1*
X4614347Y2782677D1*
X4629290Y2793790D1*
X4614347Y2805070D1*
X4597447Y2821970D1*
X4583400Y2841303D1*
X4572553Y2862593D1*
X4565167Y2885323D1*
X4561430Y2908923D1*
Y2932823D1*
X4565167Y2956423D1*
X4572553Y2979153D1*
X4583400Y3000443D1*
X4597447Y3019777D1*
X4614347Y3036677D1*
X4629290Y3047790D1*
X4614347Y3059070D1*
X4597447Y3075970D1*
X4583400Y3095303D1*
X4572553Y3116593D1*
X4565167Y3139323D1*
X4561430Y3162923D1*
Y3186823D1*
X4565167Y3210423D1*
X4572553Y3233153D1*
X4583400Y3254443D1*
X4597447Y3273777D1*
X4614347Y3290677D1*
X4633680Y3304723D1*
X4654970Y3315570D1*
X4677700Y3322957D1*
X4701300Y3326693D1*
X4840250Y3327163D1*
X4855200Y3326693D1*
X4878800Y3322957D1*
X4901530Y3315570D1*
X4922820Y3304723D1*
X4942153Y3290677D1*
X4959053Y3273777D1*
X4973100Y3254443D1*
X4983947Y3233153D1*
X4991333Y3210423D1*
X4995070Y3186823D1*
Y3162923D1*
X4991333Y3139323D1*
X4983947Y3116593D1*
X4973100Y3095303D1*
X4959053Y3075970D1*
X4942153Y3059070D1*
X4927210Y3047957D1*
X4942153Y3036677D1*
X4959053Y3019777D1*
X4970323Y3004600D1*
X5664397Y3004663D1*
X5774017Y3114387D1*
X5773960Y3671090D1*
X5721663Y3619160D1*
X5705287Y3608217D1*
X5686807Y3601397D1*
X5667247Y3599083D1*
X5666400Y3599117D1*
X4970360Y3599083D1*
X4959053Y3583970D1*
X4942153Y3567070D1*
X4922820Y3553023D1*
X4901530Y3542177D1*
X4878800Y3534790D1*
X4855200Y3531053D1*
X4716250Y3530583D1*
X4701300Y3531053D1*
X4677700Y3534790D1*
X4654970Y3542177D1*
X4633680Y3553023D1*
X4614347Y3567070D1*
X4597447Y3583970D1*
X4583400Y3603303D1*
X4572553Y3624593D1*
X4565167Y3647323D1*
X4561430Y3670923D1*
Y3694823D1*
X4565167Y3718423D1*
X4572553Y3741153D1*
X4583400Y3762443D1*
X4597447Y3781777D1*
X4614347Y3798677D1*
X4629290Y3809790D1*
X4614347Y3821070D1*
X4597447Y3837970D1*
X4586177Y3853147D1*
X4120803Y3853340D1*
X4101483Y3857183D1*
X4083597Y3865430D1*
X4068127Y3877623D1*
X4067553Y3878247D1*
X4042257Y3903497D1*
X4042290Y3877710D1*
X3983877D1*
X3983790Y3754883D1*
X3998010Y3744083D1*
X4013930Y3728163D1*
X4027167Y3709947D1*
X4037387Y3689883D1*
X4044347Y3668470D1*
X4047867Y3646230D1*
Y3623717D1*
X4044347Y3601477D1*
X4037387Y3580063D1*
X4027167Y3560000D1*
X4013930Y3541783D1*
X3998010Y3525863D1*
X3979793Y3512627D1*
X3959730Y3502407D1*
X3938317Y3495447D1*
X3916077Y3491927D1*
X3893563D1*
X3871323Y3495447D1*
X3849910Y3502407D1*
X3829847Y3512627D1*
X3811630Y3525863D1*
X3795710Y3541783D1*
X3782473Y3560000D1*
X3772253Y3580063D1*
X3765293Y3601477D1*
X3761773Y3623717D1*
Y3646230D1*
X3765293Y3668470D1*
X3772253Y3689883D1*
X3782473Y3709947D1*
X3795710Y3728163D1*
X3811630Y3744083D1*
X3816227Y3747707D1*
X3816210Y3877793D1*
X3757710Y3877710D1*
Y4101817D1*
X3685577Y4101837D1*
X3685540Y4065837D1*
X3590663D1*
X3590540Y3835837D1*
X3390960D1*
Y3895987D1*
X3315193Y3895960D1*
X3315290Y3847460D1*
X3030710D1*
Y3879333D1*
X3016353Y3879337D1*
X3016290Y3795837D1*
X2834843D1*
X2784610Y3745867D1*
X2768233Y3734923D1*
X2749753Y3728103D1*
X2730193Y3725790D1*
X2729347Y3725823D1*
X2717170Y3725790D1*
X2717290Y2830893D1*
X2734623Y2817623D1*
X2757623Y2794623D1*
X2776743Y2768310D1*
X2791510Y2739327D1*
X2801563Y2708390D1*
X2806650Y2676263D1*
Y2643737D1*
X2801563Y2611610D1*
X2791510Y2580673D1*
X2776743Y2551690D1*
X2757623Y2525377D1*
X2734623Y2502377D1*
X2717243Y2489227D1*
X2717290Y1947237D1*
X2807290Y1947290D1*
Y1532710D1*
X2392710D1*
Y1947290D1*
X2424460D1*
X2078760Y1873663D2*
X2333990D1*
Y1586683D1*
X2047010D1*
Y1638650D1*
X2029690Y1621063D1*
X2011473Y1607827D1*
X1991410Y1597607D1*
X1981130Y1593813D1*
X2133493Y1441497D1*
X3184063Y1441503D1*
X3463337Y1720800D1*
X3463317Y2089970D1*
X3413317Y2089957D1*
Y2544537D1*
X3697897D1*
Y2504973D1*
X6009907Y2505017D1*
X6101560Y2597737D1*
X6092413Y2619813D1*
X6086833Y2643050D1*
X6084960Y2666873D1*
X6086833Y2690697D1*
X6092413Y2713933D1*
X6101560Y2736010D1*
X6114043Y2756387D1*
X6129563Y2774560D1*
X6147737Y2790080D1*
X6168113Y2802563D1*
X6190190Y2811710D1*
X6213427Y2817290D1*
X6237297Y2819160D1*
X6379200Y2818693D1*
X6402800Y2814957D1*
X6425530Y2807570D1*
X6446820Y2796723D1*
X6466153Y2782677D1*
X6483053Y2765777D1*
X6497100Y2746443D1*
X6507947Y2725153D1*
X6515333Y2702423D1*
X6519070Y2678823D1*
Y2654923D1*
X6515333Y2631323D1*
X6507947Y2608593D1*
X6497100Y2587303D1*
X6483053Y2567970D1*
X6466153Y2551070D1*
X6446820Y2537023D1*
X6425530Y2526177D1*
X6402800Y2518790D1*
X6379200Y2515053D1*
X6280310Y2514583D1*
X6108040Y2342550D1*
X6096323Y2334037D1*
X6083420Y2327463D1*
X6069647Y2322987D1*
X6055343Y2320720D1*
X5825853Y2320437D1*
X3697983D1*
X3697897Y2089957D1*
X3647917D1*
X3647613Y1675313D1*
X3645347Y1661010D1*
X3640870Y1647237D1*
X3634297Y1634333D1*
X3625783Y1622617D1*
X3463710Y1460140D1*
X3282203Y1279037D1*
X3270487Y1270523D1*
X3257583Y1263950D1*
X3243810Y1259473D1*
X3229507Y1257207D1*
X3000017Y1256923D1*
X2088020Y1257207D1*
X2073717Y1259473D1*
X2059943Y1263950D1*
X2047040Y1270523D1*
X2035323Y1279037D1*
X1867497Y1446460D1*
X1877753Y1353700D1*
X1877750Y1097750D1*
X4380397Y1097847D1*
X4365887Y1117817D1*
X4354683Y1139807D1*
X4347057Y1163280D1*
X4343193Y1187660D1*
Y1212340D1*
X4347057Y1236720D1*
X4354683Y1260193D1*
X4365887Y1282183D1*
X4380397Y1302153D1*
X4397847Y1319603D1*
X4417817Y1334113D1*
X4439807Y1345317D1*
X4463280Y1352943D1*
X4487660Y1356807D1*
X4512340D1*
X4536720Y1352943D1*
X4560193Y1345317D1*
X4582183Y1334113D1*
X4602153Y1319603D1*
X4619603Y1302153D1*
X4634113Y1282183D1*
X4645317Y1260193D1*
X4652943Y1236720D1*
X4656807Y1212340D1*
Y1187660D1*
X4652943Y1163280D1*
X4645317Y1139807D1*
X4634113Y1117817D1*
X4619507Y1097743D1*
X6380397Y1097847D1*
X6365887Y1117817D1*
X6354683Y1139807D1*
X6347057Y1163280D1*
X6343193Y1187660D1*
Y1212340D1*
X6347057Y1236720D1*
X6354683Y1260193D1*
X6365887Y1282183D1*
X6380397Y1302153D1*
X6397847Y1319603D1*
X6417817Y1334113D1*
X6439807Y1345317D1*
X6463280Y1352943D1*
X6487660Y1356807D1*
X6512340D1*
X6536720Y1352943D1*
X6560193Y1345317D1*
X6582183Y1334113D1*
X6602153Y1319603D1*
X6619603Y1302153D1*
X6634113Y1282183D1*
X6645317Y1260193D1*
X6652943Y1236720D1*
X6656807Y1212340D1*
Y1187660D1*
X6652943Y1163280D1*
X6645317Y1139807D1*
X6634113Y1117817D1*
X6619507Y1097743D1*
X8380397Y1097847D1*
X8365887Y1117817D1*
X8354683Y1139807D1*
X8347057Y1163280D1*
X8343193Y1187660D1*
Y1212340D1*
X8347057Y1236720D1*
X8354683Y1260193D1*
X8365887Y1282183D1*
X8380397Y1302153D1*
X8397847Y1319603D1*
X8417817Y1334113D1*
X8439807Y1345317D1*
X8463280Y1352943D1*
X8487660Y1356807D1*
X8512340D1*
X8536720Y1352943D1*
X8560193Y1345317D1*
X8582183Y1334113D1*
X8602153Y1319603D1*
X8619603Y1302153D1*
X8634113Y1282183D1*
X8645317Y1260193D1*
X8652943Y1236720D1*
X8656807Y1212340D1*
Y1187660D1*
X8652943Y1163280D1*
X8645317Y1139807D1*
X8634113Y1117817D1*
X8619507Y1097743D1*
X10380397Y1097847D1*
X10365887Y1117817D1*
X10354683Y1139807D1*
X10347057Y1163280D1*
X10343193Y1187660D1*
Y1212340D1*
X10347057Y1236720D1*
X10354683Y1260193D1*
X10365887Y1282183D1*
X10380397Y1302153D1*
X10397847Y1319603D1*
X10417817Y1334113D1*
X10439807Y1345317D1*
X10463280Y1352943D1*
X10487660Y1356807D1*
X10512340D1*
X10536720Y1352943D1*
X10560193Y1345317D1*
X10582183Y1334113D1*
X10602153Y1319603D1*
X10619603Y1302153D1*
X10634113Y1282183D1*
X10645317Y1260193D1*
X10652943Y1236720D1*
X10656807Y1212340D1*
Y1187660D1*
X10652943Y1163280D1*
X10645317Y1139807D1*
X10634113Y1117817D1*
X10619507Y1097743D1*
X11422250Y1097750D1*
X11422450Y1357257D1*
X11435413Y1468907D1*
X11474773Y1580437D1*
X11537963Y1680410D1*
X11621820Y1763813D1*
X11722133Y1826463D1*
X11833873Y1865217D1*
X11947737Y1877713D1*
X12202250Y1877750D1*
Y5922250D1*
X11942743Y5922450D1*
X11831093Y5935413D1*
X11719567Y5974770D1*
X11619593Y6037960D1*
X11536190Y6121817D1*
X11473540Y6222127D1*
X11434783Y6333867D1*
X11422287Y6447730D1*
X11422250Y6702250D1*
X1877750D1*
X1877550Y6442743D1*
X1864587Y6331093D1*
X1825227Y6219563D1*
X1762037Y6119590D1*
X1678183Y6036187D1*
X1577873Y5973537D1*
X1466133Y5934780D1*
X1352273Y5922280D1*
X1097750Y5922250D1*
Y1998023D1*
X1105533Y2023183D1*
X1115753Y2043247D1*
X1128990Y2061463D1*
X1144910Y2077383D1*
X1163127Y2090620D1*
X1183190Y2100840D1*
X1204603Y2107800D1*
X1226843Y2111320D1*
X1249357D1*
X1271597Y2107800D1*
X1293010Y2100840D1*
X1313073Y2090620D1*
X1331290Y2077383D1*
X1347210Y2061463D1*
X1360447Y2043247D1*
X1370667Y2023183D1*
X1377627Y2001770D1*
X1381147Y1979530D1*
Y1957017D1*
X1377627Y1934777D1*
X1370667Y1913363D1*
X1360447Y1893300D1*
X1349310Y1877747D1*
X1357257Y1877550D1*
X1449320Y1867183D1*
X1440737Y1883157D1*
X1436260Y1896930D1*
X1433993Y1911233D1*
X1433710Y2077597D1*
X1363710Y2077710D1*
Y2402290D1*
X1688290D1*
Y2077710D1*
X1618217D1*
X1618290Y1956607D1*
X1800067Y1774923D1*
X1808650Y1795317D1*
X1820413Y1814513D1*
X1835037Y1831637D1*
X1852160Y1846260D1*
X1871357Y1858023D1*
X1892160Y1866640D1*
X1914053Y1871897D1*
X1936500Y1873663D1*
X1958947Y1871897D1*
X1980840Y1866640D1*
X2001643Y1858023D1*
X2020840Y1846260D1*
X2037963Y1831637D1*
X2047000Y1821600D1*
X2047010Y1873663D1*
X2078760D1*
X11429460Y4555090D2*
X11732290D1*
Y4220510D1*
X11655773Y4220077D1*
X11664130Y4203677D1*
X11669817Y4186173D1*
X11672697Y4167997D1*
Y4149590D1*
X11669817Y4131413D1*
X11664130Y4113910D1*
X11655773Y4097510D1*
X11644953Y4082620D1*
X11631940Y4069607D1*
X11617050Y4058787D1*
X11600650Y4050430D1*
X11583147Y4044743D1*
X11564970Y4041863D1*
X11546563D1*
X11528387Y4044743D1*
X11510883Y4050430D1*
X11494483Y4058787D1*
X11479593Y4069607D1*
X11466580Y4082620D1*
X11455760Y4097510D1*
X11447403Y4113910D1*
X11441717Y4131413D1*
X11438837Y4149590D1*
Y4167997D1*
X11441717Y4186173D1*
X11447403Y4203677D1*
X11456060Y4220527D1*
X11397710Y4220510D1*
Y4555090D1*
X11429460D1*
X5291773Y1886873D2*
X5287667Y1860947D1*
X5279557Y1835980D1*
X5267637Y1812590D1*
X5252207Y1791353D1*
X5233647Y1772793D1*
X5212410Y1757363D1*
X5189020Y1745443D1*
X5164053Y1737333D1*
X5138127Y1733227D1*
X5111873D1*
X5085947Y1737333D1*
X5060980Y1745443D1*
X5037590Y1757363D1*
X5016353Y1772793D1*
X4997793Y1791353D1*
X4982363Y1812590D1*
X4980330Y1816217D1*
X4019827Y1816210D1*
X4010340Y1801670D1*
X3993293Y1781707D1*
X3973330Y1764660D1*
X3950947Y1750943D1*
X3926697Y1740897D1*
X3901170Y1734770D1*
X3875000Y1732710D1*
X3848830Y1734770D1*
X3823303Y1740897D1*
X3799053Y1750943D1*
X3776670Y1764660D1*
X3756707Y1781707D1*
X3739660Y1801670D1*
X3725943Y1824053D1*
X3715897Y1848303D1*
X3709770Y1873830D1*
X3707710Y1900000D1*
X3709770Y1926170D1*
X3715897Y1951697D1*
X3725943Y1975947D1*
X3739660Y1998330D1*
X3756707Y2018293D1*
X3776670Y2035340D1*
X3799053Y2049057D1*
X3823303Y2059103D1*
X3848830Y2065230D1*
X3875000Y2067290D1*
X3901170Y2065230D1*
X3926697Y2059103D1*
X3950947Y2049057D1*
X3973330Y2035340D1*
X3993293Y2018293D1*
X4010340Y1998330D1*
X4019670Y1983783D1*
X4394037Y1983790D1*
X4380397Y1997847D1*
X4365887Y2017817D1*
X4354683Y2039807D1*
X4347057Y2063280D1*
X4343193Y2087660D1*
Y2112340D1*
X4347057Y2136720D1*
X4354683Y2160193D1*
X4365887Y2182183D1*
X4380397Y2202153D1*
X4397847Y2219603D1*
X4417817Y2234113D1*
X4439807Y2245317D1*
X4463280Y2252943D1*
X4487660Y2256807D1*
X4512340D1*
X4536720Y2252943D1*
X4560193Y2245317D1*
X4582183Y2234113D1*
X4602153Y2219603D1*
X4619603Y2202153D1*
X4634113Y2182183D1*
X4645317Y2160193D1*
X4652943Y2136720D1*
X4656807Y2112340D1*
Y2087660D1*
X4652943Y2063280D1*
X4645317Y2039807D1*
X4634113Y2017817D1*
X4619603Y1997847D1*
X4605800Y1983770D1*
X4980173Y1983790D1*
X4989660Y1998330D1*
X5006707Y2018293D1*
X5026670Y2035340D1*
X5049053Y2049057D1*
X5073303Y2059103D1*
X5098830Y2065230D1*
X5125000Y2067290D1*
X5151170Y2065230D1*
X5176697Y2059103D1*
X5200947Y2049057D1*
X5223330Y2035340D1*
X5243293Y2018293D1*
X5260340Y1998330D1*
X5274057Y1975947D1*
X5284103Y1951697D1*
X5290230Y1926170D1*
X5292290Y1900000D1*
X5291773Y1886873D1*
X7291773D2*
X7287667Y1860947D1*
X7279557Y1835980D1*
X7267637Y1812590D1*
X7252207Y1791353D1*
X7233647Y1772793D1*
X7212410Y1757363D1*
X7189020Y1745443D1*
X7164053Y1737333D1*
X7138127Y1733227D1*
X7111873D1*
X7085947Y1737333D1*
X7060980Y1745443D1*
X7037590Y1757363D1*
X7016353Y1772793D1*
X6997793Y1791353D1*
X6982363Y1812590D1*
X6980330Y1816217D1*
X6019827Y1816210D1*
X6010340Y1801670D1*
X5993293Y1781707D1*
X5973330Y1764660D1*
X5950947Y1750943D1*
X5926697Y1740897D1*
X5901170Y1734770D1*
X5875000Y1732710D1*
X5848830Y1734770D1*
X5823303Y1740897D1*
X5799053Y1750943D1*
X5776670Y1764660D1*
X5756707Y1781707D1*
X5739660Y1801670D1*
X5725943Y1824053D1*
X5715897Y1848303D1*
X5709770Y1873830D1*
X5707710Y1900000D1*
X5709770Y1926170D1*
X5715897Y1951697D1*
X5725943Y1975947D1*
X5739660Y1998330D1*
X5756707Y2018293D1*
X5776670Y2035340D1*
X5799053Y2049057D1*
X5823303Y2059103D1*
X5848830Y2065230D1*
X5875000Y2067290D1*
X5901170Y2065230D1*
X5926697Y2059103D1*
X5950947Y2049057D1*
X5973330Y2035340D1*
X5993293Y2018293D1*
X6010340Y1998330D1*
X6019670Y1983783D1*
X6394037Y1983790D1*
X6380397Y1997847D1*
X6365887Y2017817D1*
X6354683Y2039807D1*
X6347057Y2063280D1*
X6343193Y2087660D1*
Y2112340D1*
X6347057Y2136720D1*
X6354683Y2160193D1*
X6365887Y2182183D1*
X6380397Y2202153D1*
X6397847Y2219603D1*
X6417817Y2234113D1*
X6439807Y2245317D1*
X6463280Y2252943D1*
X6487660Y2256807D1*
X6512340D1*
X6536720Y2252943D1*
X6560193Y2245317D1*
X6582183Y2234113D1*
X6602153Y2219603D1*
X6619603Y2202153D1*
X6634113Y2182183D1*
X6645317Y2160193D1*
X6652943Y2136720D1*
X6656807Y2112340D1*
Y2087660D1*
X6652943Y2063280D1*
X6645317Y2039807D1*
X6634113Y2017817D1*
X6619603Y1997847D1*
X6605800Y1983770D1*
X6980173Y1983790D1*
X6989660Y1998330D1*
X7006707Y2018293D1*
X7026670Y2035340D1*
X7049053Y2049057D1*
X7073303Y2059103D1*
X7098830Y2065230D1*
X7125000Y2067290D1*
X7151170Y2065230D1*
X7176697Y2059103D1*
X7200947Y2049057D1*
X7223330Y2035340D1*
X7243293Y2018293D1*
X7260340Y1998330D1*
X7274057Y1975947D1*
X7284103Y1951697D1*
X7290230Y1926170D1*
X7292290Y1900000D1*
X7291773Y1886873D1*
X9291773D2*
X9287667Y1860947D1*
X9279557Y1835980D1*
X9267637Y1812590D1*
X9252207Y1791353D1*
X9233647Y1772793D1*
X9212410Y1757363D1*
X9189020Y1745443D1*
X9164053Y1737333D1*
X9138127Y1733227D1*
X9111873D1*
X9085947Y1737333D1*
X9060980Y1745443D1*
X9037590Y1757363D1*
X9016353Y1772793D1*
X8997793Y1791353D1*
X8982363Y1812590D1*
X8980330Y1816217D1*
X8019827Y1816210D1*
X8010340Y1801670D1*
X7993293Y1781707D1*
X7973330Y1764660D1*
X7950947Y1750943D1*
X7926697Y1740897D1*
X7901170Y1734770D1*
X7875000Y1732710D1*
X7848830Y1734770D1*
X7823303Y1740897D1*
X7799053Y1750943D1*
X7776670Y1764660D1*
X7756707Y1781707D1*
X7739660Y1801670D1*
X7725943Y1824053D1*
X7715897Y1848303D1*
X7709770Y1873830D1*
X7707710Y1900000D1*
X7709770Y1926170D1*
X7715897Y1951697D1*
X7725943Y1975947D1*
X7739660Y1998330D1*
X7756707Y2018293D1*
X7776670Y2035340D1*
X7799053Y2049057D1*
X7823303Y2059103D1*
X7848830Y2065230D1*
X7875000Y2067290D1*
X7901170Y2065230D1*
X7926697Y2059103D1*
X7950947Y2049057D1*
X7973330Y2035340D1*
X7993293Y2018293D1*
X8010340Y1998330D1*
X8019670Y1983783D1*
X8394037Y1983790D1*
X8380397Y1997847D1*
X8365887Y2017817D1*
X8354683Y2039807D1*
X8347057Y2063280D1*
X8343193Y2087660D1*
Y2112340D1*
X8347057Y2136720D1*
X8354683Y2160193D1*
X8365887Y2182183D1*
X8380397Y2202153D1*
X8397847Y2219603D1*
X8417817Y2234113D1*
X8439807Y2245317D1*
X8463280Y2252943D1*
X8487660Y2256807D1*
X8512340D1*
X8536720Y2252943D1*
X8560193Y2245317D1*
X8582183Y2234113D1*
X8602153Y2219603D1*
X8619603Y2202153D1*
X8634113Y2182183D1*
X8645317Y2160193D1*
X8652943Y2136720D1*
X8656807Y2112340D1*
Y2087660D1*
X8652943Y2063280D1*
X8645317Y2039807D1*
X8634113Y2017817D1*
X8619603Y1997847D1*
X8605800Y1983770D1*
X8980173Y1983790D1*
X8989660Y1998330D1*
X9006707Y2018293D1*
X9026670Y2035340D1*
X9049053Y2049057D1*
X9073303Y2059103D1*
X9098830Y2065230D1*
X9125000Y2067290D1*
X9151170Y2065230D1*
X9176697Y2059103D1*
X9200947Y2049057D1*
X9223330Y2035340D1*
X9243293Y2018293D1*
X9260340Y1998330D1*
X9274057Y1975947D1*
X9284103Y1951697D1*
X9290230Y1926170D1*
X9292290Y1900000D1*
X9291773Y1886873D1*
X10656807Y5537660D2*
X10652943Y5513280D1*
X10645317Y5489807D1*
X10634113Y5467817D1*
X10619603Y5447847D1*
X10602153Y5430397D1*
X10582183Y5415887D1*
X10560193Y5404683D1*
X10536720Y5397057D1*
X10512340Y5393193D1*
X10487660D1*
X10463280Y5397057D1*
X10439807Y5404683D1*
X10417817Y5415887D1*
X10397847Y5430397D1*
X10380397Y5447847D1*
X10365887Y5467817D1*
X10354683Y5489807D1*
X10347057Y5513280D1*
X10343193Y5537660D1*
Y5562340D1*
X10347057Y5586720D1*
X10354683Y5610193D1*
X10365887Y5632183D1*
X10380397Y5652153D1*
X10397847Y5669603D1*
X10417817Y5684113D1*
X10439807Y5695317D1*
X10463280Y5702943D1*
X10487660Y5706807D1*
X10512340D1*
X10536720Y5702943D1*
X10560193Y5695317D1*
X10582183Y5684113D1*
X10602153Y5669603D1*
X10619603Y5652153D1*
X10634113Y5632183D1*
X10645317Y5610193D1*
X10652943Y5586720D1*
X10656807Y5562340D1*
Y5537660D1*
X11291773Y4236873D2*
X11287667Y4210947D1*
X11279557Y4185980D1*
X11267637Y4162590D1*
X11252207Y4141353D1*
X11233647Y4122793D1*
X11212410Y4107363D1*
X11189020Y4095443D1*
X11164053Y4087333D1*
X11138127Y4083227D1*
X11111873D1*
X11085947Y4087333D1*
X11060980Y4095443D1*
X11037590Y4107363D1*
X11016353Y4122793D1*
X10997793Y4141353D1*
X10982363Y4162590D1*
X10980330Y4166217D1*
X10019827Y4166210D1*
X10010340Y4151670D1*
X9993293Y4131707D1*
X9973330Y4114660D1*
X9950947Y4100943D1*
X9926697Y4090897D1*
X9901170Y4084770D1*
X9875000Y4082710D1*
X9848830Y4084770D1*
X9823303Y4090897D1*
X9799053Y4100943D1*
X9776670Y4114660D1*
X9756707Y4131707D1*
X9739660Y4151670D1*
X9725943Y4174053D1*
X9715897Y4198303D1*
X9709770Y4223830D1*
X9707710Y4250000D1*
X9709770Y4276170D1*
X9710480Y4279743D1*
X9691257Y4276953D1*
X9668743D1*
X9646503Y4280473D1*
X9625090Y4287433D1*
X9605027Y4297653D1*
X9586810Y4310890D1*
X9570890Y4326810D1*
X9557653Y4345027D1*
X9547433Y4365090D1*
X9540473Y4386503D1*
X9536953Y4408743D1*
Y4431257D1*
X9540473Y4453497D1*
X9547433Y4474910D1*
X9557653Y4494973D1*
X9570890Y4513190D1*
X9586810Y4529110D1*
X9605027Y4542347D1*
X9619373Y4549933D1*
X9605027Y4557653D1*
X9586810Y4570890D1*
X9570890Y4586810D1*
X9557653Y4605027D1*
X9547433Y4625090D1*
X9540473Y4646503D1*
X9536953Y4668743D1*
Y4691257D1*
X9540473Y4713497D1*
X9547433Y4734910D1*
X9557653Y4754973D1*
X9570890Y4773190D1*
X9586810Y4789110D1*
X9605027Y4802347D1*
X9609673Y4804947D1*
X9595660Y4813913D1*
X9578537Y4828537D1*
X9563913Y4845660D1*
X9552150Y4864857D1*
X9543533Y4885660D1*
X9538277Y4907553D1*
X9536510Y4930000D1*
X9538277Y4952447D1*
X9543533Y4974340D1*
X9552150Y4995143D1*
X9563913Y5014340D1*
X9578537Y5031463D1*
X9595660Y5046087D1*
X9614203Y5057483D1*
X9595660Y5068913D1*
X9578537Y5083537D1*
X9563913Y5100660D1*
X9552150Y5119857D1*
X9543533Y5140660D1*
X9538277Y5162553D1*
X9536510Y5185000D1*
X9538277Y5207447D1*
X9543533Y5229340D1*
X9552150Y5250143D1*
X9563913Y5269340D1*
X9578537Y5286463D1*
X9595660Y5301087D1*
X9611823Y5311150D1*
X9590660Y5323913D1*
X9573537Y5338537D1*
X9558913Y5355660D1*
X9547150Y5374857D1*
X9538533Y5395660D1*
X9533277Y5417553D1*
X9532290Y5425900D1*
Y5284210D1*
X9496200D1*
X9509480Y5265877D1*
X9520507Y5244237D1*
X9528013Y5221137D1*
X9531813Y5197143D1*
Y5172857D1*
X9528013Y5148863D1*
X9520507Y5125763D1*
X9509480Y5104123D1*
X9495203Y5084473D1*
X9478027Y5067297D1*
X9465917Y5058057D1*
X9486953Y5040453D1*
X9502727Y5021983D1*
X9515420Y5001273D1*
X9524713Y4978833D1*
X9530383Y4955213D1*
X9532290Y4931000D1*
X9530383Y4906787D1*
X9524713Y4883167D1*
X9515420Y4860727D1*
X9502727Y4840017D1*
X9486953Y4821547D1*
X9468483Y4805773D1*
X9465917Y4804057D1*
X9486953Y4786453D1*
X9502727Y4767983D1*
X9515420Y4747273D1*
X9524713Y4724833D1*
X9530383Y4701213D1*
X9532290Y4677000D1*
X9530383Y4652787D1*
X9524713Y4629167D1*
X9515420Y4606727D1*
X9502727Y4586017D1*
X9486953Y4567547D1*
X9468483Y4551773D1*
X9465917Y4550057D1*
X9486953Y4532453D1*
X9502727Y4513983D1*
X9515420Y4493273D1*
X9524713Y4470833D1*
X9530383Y4447213D1*
X9532290Y4423000D1*
X9530383Y4398787D1*
X9524713Y4375167D1*
X9515420Y4352727D1*
X9502727Y4332017D1*
X9486953Y4313547D1*
X9468483Y4297773D1*
X9465917Y4296057D1*
X9486953Y4278453D1*
X9502727Y4259983D1*
X9515420Y4239273D1*
X9524713Y4216833D1*
X9530383Y4193213D1*
X9532290Y4169000D1*
X9530383Y4144787D1*
X9524713Y4121167D1*
X9515420Y4098727D1*
X9502727Y4078017D1*
X9486953Y4059547D1*
X9468483Y4043773D1*
X9465917Y4042057D1*
X9486953Y4024453D1*
X9502727Y4005983D1*
X9515420Y3985273D1*
X9524713Y3962833D1*
X9530383Y3939213D1*
X9532290Y3915000D1*
X9530383Y3890787D1*
X9524713Y3867167D1*
X9515420Y3844727D1*
X9502727Y3824017D1*
X9486953Y3805547D1*
X9468483Y3789773D1*
X9447773Y3777080D1*
X9425333Y3767787D1*
X9401713Y3762117D1*
X9377500Y3760210D1*
X9290357Y3760687D1*
X9266363Y3764487D1*
X9243263Y3771993D1*
X9221623Y3783020D1*
X9201973Y3797297D1*
X9184797Y3814473D1*
X9170520Y3834123D1*
X9159493Y3855763D1*
X9151987Y3878863D1*
X9148187Y3902857D1*
Y3927143D1*
X9151987Y3951137D1*
X9159493Y3974237D1*
X9170520Y3995877D1*
X9184797Y4015527D1*
X9201973Y4032703D1*
X9214083Y4041943D1*
X9193047Y4059547D1*
X9177273Y4078017D1*
X9164580Y4098727D1*
X9155287Y4121167D1*
X9149617Y4144787D1*
X9147710Y4169000D1*
X9149617Y4193213D1*
X9155287Y4216833D1*
X9164580Y4239273D1*
X9177273Y4259983D1*
X9193047Y4278453D1*
X9211517Y4294227D1*
X9214083Y4295943D1*
X9193047Y4313547D1*
X9177273Y4332017D1*
X9168780Y4345230D1*
X7914927Y4345467D1*
X7895607Y4349310D1*
X7877720Y4357557D1*
X7862250Y4369750D1*
X7861677Y4370373D1*
X7778410Y4453960D1*
X7767467Y4470337D1*
X7760647Y4488817D1*
X7758333Y4508377D1*
X7758367Y4509223D1*
X7758333Y4648647D1*
X7747233Y4661683D1*
X7737617Y4677373D1*
X7730573Y4694380D1*
X7726277Y4712277D1*
X7724833Y4730623D1*
X7726277Y4748970D1*
X7730573Y4766867D1*
X7737617Y4783873D1*
X7747233Y4799563D1*
X7759187Y4813560D1*
X7773183Y4825513D1*
X7788873Y4835130D1*
X7805880Y4842173D1*
X7823777Y4846470D1*
X7842123Y4847913D1*
X7860470Y4846470D1*
X7878367Y4842173D1*
X7895373Y4835130D1*
X7911063Y4825513D1*
X7925060Y4813560D1*
X7937013Y4799563D1*
X7946630Y4783873D1*
X7953673Y4766867D1*
X7957970Y4748970D1*
X7959413Y4730623D1*
X7957970Y4712277D1*
X7953673Y4694380D1*
X7946630Y4677373D1*
X7937013Y4661683D1*
X7925867Y4648560D1*
X7925913Y4542977D1*
X7956183Y4512813D1*
X9176493Y4512790D1*
X9193047Y4532453D1*
X9211517Y4548227D1*
X9214083Y4549943D1*
X9193047Y4567547D1*
X9177273Y4586017D1*
X9164580Y4606727D1*
X9155287Y4629167D1*
X9149617Y4652787D1*
X9147710Y4677000D1*
X9149617Y4701213D1*
X9155287Y4724833D1*
X9164580Y4747273D1*
X9177273Y4767983D1*
X9193047Y4786453D1*
X9211517Y4802227D1*
X9214083Y4803943D1*
X9193047Y4821547D1*
X9177273Y4840017D1*
X9164580Y4860727D1*
X9155287Y4883167D1*
X9149617Y4906787D1*
X9147710Y4931000D1*
X9149617Y4955213D1*
X9155287Y4978833D1*
X9164580Y5001273D1*
X9177273Y5021983D1*
X9193047Y5040453D1*
X9211517Y5056227D1*
X9214083Y5057943D1*
X9193047Y5075547D1*
X9177273Y5094017D1*
X9164580Y5114727D1*
X9155287Y5137167D1*
X9149617Y5160787D1*
X9147710Y5185000D1*
X9149617Y5209213D1*
X9155287Y5232833D1*
X9164580Y5255273D1*
X9177273Y5275983D1*
X9183040Y5284210D1*
X9147710D1*
Y5593790D1*
X9532290D1*
Y5455007D1*
X9535473Y5473497D1*
X9542433Y5494910D1*
X9552653Y5514973D1*
X9565890Y5533190D1*
X9581810Y5549110D1*
X9600027Y5562347D1*
X9620090Y5572567D1*
X9641503Y5579527D1*
X9663743Y5583047D1*
X9686257D1*
X9708497Y5579527D1*
X9729910Y5572567D1*
X9749973Y5562347D1*
X9768190Y5549110D1*
X9784110Y5533190D1*
X9797347Y5514973D1*
X9807567Y5494910D1*
X9814527Y5473497D1*
X9818047Y5451257D1*
Y5428743D1*
X9814527Y5406503D1*
X9807567Y5385090D1*
X9797347Y5365027D1*
X9784110Y5346810D1*
X9768190Y5330890D1*
X9749973Y5317653D1*
X9743177Y5313850D1*
X9764340Y5301087D1*
X9781463Y5286463D1*
X9796087Y5269340D1*
X9807850Y5250143D1*
X9816467Y5229340D1*
X9821723Y5207447D1*
X9823490Y5185000D1*
X9821723Y5162553D1*
X9816467Y5140660D1*
X9807850Y5119857D1*
X9796087Y5100660D1*
X9781463Y5083537D1*
X9764340Y5068913D1*
X9745797Y5057517D1*
X9764340Y5046087D1*
X9781463Y5031463D1*
X9796087Y5014340D1*
X9807850Y4995143D1*
X9816467Y4974340D1*
X9821723Y4952447D1*
X9823490Y4930000D1*
X9821723Y4907553D1*
X9816467Y4885660D1*
X9807850Y4864857D1*
X9796087Y4845660D1*
X9781463Y4828537D1*
X9764340Y4813913D1*
X9750327Y4805053D1*
X9764340Y4796087D1*
X9781463Y4781463D1*
X9796087Y4764340D1*
X9807850Y4745143D1*
X9816467Y4724340D1*
X9821723Y4702447D1*
X9823490Y4680000D1*
X9821723Y4657553D1*
X9816467Y4635660D1*
X9807850Y4614857D1*
X9796087Y4595660D1*
X9781463Y4578537D1*
X9764340Y4563913D1*
X9745143Y4552150D1*
X9740627Y4550067D1*
X9754973Y4542347D1*
X9773190Y4529110D1*
X9789110Y4513190D1*
X9802347Y4494973D1*
X9812567Y4474910D1*
X9819527Y4453497D1*
X9823047Y4431257D1*
X9823303Y4409103D1*
X9848830Y4415230D1*
X9875000Y4417290D1*
X9901170Y4415230D1*
X9926697Y4409103D1*
X9950947Y4399057D1*
X9973330Y4385340D1*
X9993293Y4368293D1*
X10010340Y4348330D1*
X10019670Y4333783D1*
X10394037Y4333790D1*
X10380397Y4347847D1*
X10365887Y4367817D1*
X10354683Y4389807D1*
X10347057Y4413280D1*
X10343193Y4437660D1*
Y4462340D1*
X10347057Y4486720D1*
X10354683Y4510193D1*
X10365887Y4532183D1*
X10380397Y4552153D1*
X10397847Y4569603D1*
X10417817Y4584113D1*
X10439807Y4595317D1*
X10463280Y4602943D1*
X10487660Y4606807D1*
X10512340D1*
X10536720Y4602943D1*
X10560193Y4595317D1*
X10582183Y4584113D1*
X10602153Y4569603D1*
X10619603Y4552153D1*
X10634113Y4532183D1*
X10645317Y4510193D1*
X10652943Y4486720D1*
X10656807Y4462340D1*
Y4437660D1*
X10652943Y4413280D1*
X10645317Y4389807D1*
X10634113Y4367817D1*
X10619603Y4347847D1*
X10605800Y4333770D1*
X10980173Y4333790D1*
X10989660Y4348330D1*
X11006707Y4368293D1*
X11026670Y4385340D1*
X11049053Y4399057D1*
X11073303Y4409103D1*
X11098830Y4415230D1*
X11125000Y4417290D1*
X11151170Y4415230D1*
X11176697Y4409103D1*
X11200947Y4399057D1*
X11223330Y4385340D1*
X11243293Y4368293D1*
X11260340Y4348330D1*
X11274057Y4325947D1*
X11284103Y4301697D1*
X11290230Y4276170D1*
X11292290Y4250000D1*
X11291773Y4236873D1*
X10656807Y3537660D2*
X10652943Y3513280D1*
X10645317Y3489807D1*
X10634113Y3467817D1*
X10619603Y3447847D1*
X10602153Y3430397D1*
X10582183Y3415887D1*
X10560193Y3404683D1*
X10536720Y3397057D1*
X10512340Y3393193D1*
X10487660D1*
X10463280Y3397057D1*
X10439807Y3404683D1*
X10417817Y3415887D1*
X10397847Y3430397D1*
X10380397Y3447847D1*
X10365887Y3467817D1*
X10354683Y3489807D1*
X10347057Y3513280D1*
X10343193Y3537660D1*
Y3562340D1*
X10347057Y3586720D1*
X10354683Y3610193D1*
X10365887Y3632183D1*
X10380397Y3652153D1*
X10397847Y3669603D1*
X10417817Y3684113D1*
X10439807Y3695317D1*
X10463280Y3702943D1*
X10487660Y3706807D1*
X10512340D1*
X10536720Y3702943D1*
X10560193Y3695317D1*
X10582183Y3684113D1*
X10602153Y3669603D1*
X10619603Y3652153D1*
X10634113Y3632183D1*
X10645317Y3610193D1*
X10652943Y3586720D1*
X10656807Y3562340D1*
Y3537660D1*
X11291773Y1886873D2*
X11287667Y1860947D1*
X11279557Y1835980D1*
X11267637Y1812590D1*
X11252207Y1791353D1*
X11233647Y1772793D1*
X11212410Y1757363D1*
X11189020Y1745443D1*
X11164053Y1737333D1*
X11138127Y1733227D1*
X11111873D1*
X11085947Y1737333D1*
X11060980Y1745443D1*
X11037590Y1757363D1*
X11016353Y1772793D1*
X10997793Y1791353D1*
X10982363Y1812590D1*
X10980330Y1816217D1*
X10019827Y1816210D1*
X10010340Y1801670D1*
X9993293Y1781707D1*
X9973330Y1764660D1*
X9950947Y1750943D1*
X9926697Y1740897D1*
X9901170Y1734770D1*
X9875000Y1732710D1*
X9848830Y1734770D1*
X9823303Y1740897D1*
X9799053Y1750943D1*
X9776670Y1764660D1*
X9756707Y1781707D1*
X9739660Y1801670D1*
X9725943Y1824053D1*
X9715897Y1848303D1*
X9709770Y1873830D1*
X9707710Y1900000D1*
X9709770Y1926170D1*
X9715897Y1951697D1*
X9725943Y1975947D1*
X9739660Y1998330D1*
X9756707Y2018293D1*
X9776670Y2035340D1*
X9799053Y2049057D1*
X9823303Y2059103D1*
X9848830Y2065230D1*
X9875000Y2067290D1*
X9901170Y2065230D1*
X9926697Y2059103D1*
X9950947Y2049057D1*
X9973330Y2035340D1*
X9993293Y2018293D1*
X10010340Y1998330D1*
X10019670Y1983783D1*
X10394037Y1983790D1*
X10380397Y1997847D1*
X10365887Y2017817D1*
X10354683Y2039807D1*
X10347057Y2063280D1*
X10343193Y2087660D1*
Y2112340D1*
X10347057Y2136720D1*
X10354683Y2160193D1*
X10365887Y2182183D1*
X10380397Y2202153D1*
X10397847Y2219603D1*
X10417817Y2234113D1*
X10439807Y2245317D1*
X10463280Y2252943D1*
X10487660Y2256807D1*
X10512340D1*
X10536720Y2252943D1*
X10560193Y2245317D1*
X10582183Y2234113D1*
X10602153Y2219603D1*
X10619603Y2202153D1*
X10634113Y2182183D1*
X10645317Y2160193D1*
X10652943Y2136720D1*
X10656807Y2112340D1*
Y2087660D1*
X10652943Y2063280D1*
X10645317Y2039807D1*
X10634113Y2017817D1*
X10619603Y1997847D1*
X10605800Y1983770D1*
X10980173Y1983790D1*
X10989660Y1998330D1*
X11006707Y2018293D1*
X11026670Y2035340D1*
X11049053Y2049057D1*
X11073303Y2059103D1*
X11098830Y2065230D1*
X11125000Y2067290D1*
X11151170Y2065230D1*
X11176697Y2059103D1*
X11200947Y2049057D1*
X11223330Y2035340D1*
X11243293Y2018293D1*
X11260340Y1998330D1*
X11274057Y1975947D1*
X11284103Y1951697D1*
X11290230Y1926170D1*
X11292290Y1900000D1*
X11291773Y1886873D1*
X3556047Y5179743D2*
X3552527Y5157503D1*
X3545567Y5136090D1*
X3535347Y5116027D1*
X3522110Y5097810D1*
X3506190Y5081890D1*
X3487973Y5068653D1*
X3467910Y5058433D1*
X3446497Y5051473D1*
X3424257Y5047953D1*
X3401743D1*
X3379503Y5051473D1*
X3358090Y5058433D1*
X3338027Y5068653D1*
X3319810Y5081890D1*
X3303890Y5097810D1*
X3290653Y5116027D1*
X3280433Y5136090D1*
X3273473Y5157503D1*
X3269953Y5179743D1*
Y5202257D1*
X3273473Y5224497D1*
X3280433Y5245910D1*
X3290653Y5265973D1*
X3303890Y5284190D1*
X3319810Y5300110D1*
X3338027Y5313347D1*
X3358090Y5323567D1*
X3379503Y5330527D1*
X3401743Y5334047D1*
X3424257D1*
X3446497Y5330527D1*
X3467910Y5323567D1*
X3487973Y5313347D1*
X3506190Y5300110D1*
X3522110Y5284190D1*
X3535347Y5265973D1*
X3545567Y5245910D1*
X3552527Y5224497D1*
X3556047Y5202257D1*
Y5179743D1*
X9823047Y3903743D2*
X9819527Y3881503D1*
X9812567Y3860090D1*
X9802347Y3840027D1*
X9789110Y3821810D1*
X9773190Y3805890D1*
X9754973Y3792653D1*
X9734910Y3782433D1*
X9713497Y3775473D1*
X9691257Y3771953D1*
X9668743D1*
X9646503Y3775473D1*
X9625090Y3782433D1*
X9605027Y3792653D1*
X9586810Y3805890D1*
X9570890Y3821810D1*
X9557653Y3840027D1*
X9547433Y3860090D1*
X9540473Y3881503D1*
X9536953Y3903743D1*
Y3926257D1*
X9540473Y3948497D1*
X9547433Y3969910D1*
X9557653Y3989973D1*
X9570890Y4008190D1*
X9586810Y4024110D1*
X9605027Y4037347D1*
X9625090Y4047567D1*
X9646503Y4054527D1*
X9668743Y4058047D1*
X9691257D1*
X9713497Y4054527D1*
X9734910Y4047567D1*
X9754973Y4037347D1*
X9773190Y4024110D1*
X9789110Y4008190D1*
X9802347Y3989973D1*
X9812567Y3969910D1*
X9819527Y3948497D1*
X9823047Y3926257D1*
Y3903743D1*
X4051850Y5446553D2*
X4048330Y5424313D1*
X4041370Y5402900D1*
X4031150Y5382837D1*
X4017913Y5364620D1*
X4001993Y5348700D1*
X3983777Y5335463D1*
X3963713Y5325243D1*
X3942300Y5318283D1*
X3920060Y5314763D1*
X3897547D1*
X3875307Y5318283D1*
X3853893Y5325243D1*
X3833830Y5335463D1*
X3815613Y5348700D1*
X3799693Y5364620D1*
X3786457Y5382837D1*
X3776237Y5402900D1*
X3769277Y5424313D1*
X3765757Y5446553D1*
Y5469067D1*
X3769277Y5491307D1*
X3776237Y5512720D1*
X3786457Y5532783D1*
X3799693Y5551000D1*
X3815613Y5566920D1*
X3833830Y5580157D1*
X3853893Y5590377D1*
X3875307Y5597337D1*
X3897547Y5600857D1*
X3920060D1*
X3942300Y5597337D1*
X3963713Y5590377D1*
X3983777Y5580157D1*
X4001993Y5566920D1*
X4017913Y5551000D1*
X4031150Y5532783D1*
X4041370Y5512720D1*
X4048330Y5491307D1*
X4051850Y5469067D1*
Y5446553D1*
X2195790Y2227267D2*
X2191807Y2202113D1*
X2183937Y2177893D1*
X2172373Y2155203D1*
X2157407Y2134600D1*
X2139400Y2116593D1*
X2118797Y2101627D1*
X2096107Y2090063D1*
X2071887Y2082193D1*
X2046733Y2078210D1*
X2021267D1*
X1996113Y2082193D1*
X1971893Y2090063D1*
X1949203Y2101627D1*
X1928600Y2116593D1*
X1910593Y2134600D1*
X1895627Y2155203D1*
X1884063Y2177893D1*
X1876193Y2202113D1*
X1872210Y2227267D1*
Y2252733D1*
X1876193Y2277887D1*
X1884063Y2302107D1*
X1895627Y2324797D1*
X1910593Y2345400D1*
X1928600Y2363407D1*
X1949203Y2378373D1*
X1971893Y2389937D1*
X1996113Y2397807D1*
X2021267Y2401790D1*
X2046733D1*
X2071887Y2397807D1*
X2096107Y2389937D1*
X2118797Y2378373D1*
X2139400Y2363407D1*
X2157407Y2345400D1*
X2172373Y2324797D1*
X2183937Y2302107D1*
X2191807Y2277887D1*
X2195790Y2252733D1*
Y2227267D1*
X2041277Y4129440D2*
X2038857Y4109003D1*
X2034843Y4088820D1*
X2029257Y4069017D1*
X2022133Y4049710D1*
X2013517Y4031020D1*
X2003463Y4013067D1*
X1992030Y3995953D1*
X1979290Y3979793D1*
X1965320Y3964683D1*
X1950210Y3950713D1*
X1934050Y3937973D1*
X1916937Y3926540D1*
X1898983Y3916487D1*
X1880293Y3907870D1*
X1860987Y3900747D1*
X1841183Y3895160D1*
X1821000Y3891147D1*
X1800563Y3888727D1*
X1780000Y3887920D1*
X1759437Y3888727D1*
X1739000Y3891147D1*
X1718817Y3895160D1*
X1699013Y3900747D1*
X1679707Y3907870D1*
X1661017Y3916487D1*
X1643063Y3926540D1*
X1625950Y3937973D1*
X1609790Y3950713D1*
X1594680Y3964683D1*
X1580710Y3979793D1*
X1567970Y3995953D1*
X1556537Y4013067D1*
X1546483Y4031020D1*
X1537867Y4049710D1*
X1530743Y4069017D1*
X1525157Y4088820D1*
X1521143Y4109003D1*
X1518723Y4129440D1*
X1517917Y4150003D1*
X1518723Y4170567D1*
X1521143Y4191003D1*
X1525157Y4211187D1*
X1530743Y4230990D1*
X1537867Y4250297D1*
X1546483Y4268987D1*
X1556537Y4286940D1*
X1567970Y4304053D1*
X1580710Y4320213D1*
X1594680Y4335323D1*
X1609790Y4349293D1*
X1625950Y4362033D1*
X1643063Y4373467D1*
X1661017Y4383520D1*
X1679707Y4392137D1*
X1699013Y4399260D1*
X1718817Y4404847D1*
X1739000Y4408860D1*
X1759437Y4411280D1*
X1780000Y4412087D1*
X1800563Y4411280D1*
X1821000Y4408860D1*
X1841183Y4404847D1*
X1860987Y4399260D1*
X1880293Y4392137D1*
X1898983Y4383520D1*
X1916937Y4373467D1*
X1934050Y4362033D1*
X1950210Y4349293D1*
X1965320Y4335323D1*
X1979290Y4320213D1*
X1992030Y4304053D1*
X2003463Y4286940D1*
X2013517Y4268987D1*
X2022133Y4250297D1*
X2029257Y4230990D1*
X2034843Y4211187D1*
X2038857Y4191003D1*
X2041277Y4170567D1*
X2042083Y4150003D1*
X2041277Y4129440D1*
X3395750Y4305293D2*
D14*
Y4185627D1*
X3400000Y4642167D2*
Y4357833D1*
X3267833Y4500000D2*
X3400000D1*
X11588627Y5619623D2*
Y5477457D1*
X11456460Y5619623D2*
X11588627D1*
X2054100Y5810457D2*
D18*
X2358713D1*
X2054100Y5747290D2*
X2358713D1*
X2054100Y5684123D2*
X2358713D1*
X2054100Y5620957D2*
X2358713D1*
X2054100Y5557790D2*
X2358713D1*
X2054100Y5494623D2*
X2358713D1*
X2054100Y5431457D2*
X2358713D1*
X2054100Y5368290D2*
X2358713D1*
X2054100Y5305123D2*
X2358713D1*
X2054100Y5241957D2*
X2358713D1*
X2054100Y5178790D2*
X2358713D1*
X2054100Y5115623D2*
X2358713D1*
X2054100Y5052457D2*
X2358713D1*
X2054100Y4989290D2*
X2388107D1*
X2054100Y4926123D2*
X2895737D1*
X2054100Y4862957D2*
X2914340D1*
X2054100Y4799790D2*
X2914340D1*
X2054100Y4736623D2*
X2914463D1*
X2076733Y4673457D2*
X2914463D1*
X2139987Y4610290D2*
X2914463D1*
X2092743Y5873713D2*
X2047677Y5828650D1*
X2047750Y4696083D1*
X2156177Y4587723D1*
X2920860Y4587733D1*
X2920677Y4907587D1*
X2891647Y4936587D1*
X2455380Y4936973D1*
X2445933Y4940043D1*
X2437320Y4946503D1*
X2371167Y5013163D1*
X2366657Y5022017D1*
X2365137Y5032673D1*
X2365103Y5828230D1*
X2320133Y5873187D1*
X2092647Y5873597D1*
D86*
X10500000Y2977000D3*
Y2723000D3*
D27*
X1400000Y5730000D3*
D28*
Y4790000D3*
X1780000Y5730000D3*
X2160000D3*
X1780000Y4790000D3*
X2160000D3*
X3000000Y1740000D3*
Y2660000D3*
D27*
X2600000Y1740000D3*
D28*
Y2660000D3*
D29*
X9680000Y3067000D3*
D30*
Y2813000D3*
D29*
X2190500Y1730173D3*
D30*
X1936500D3*
D25*
X2538000Y3963127D3*
X2665000D3*
X2792000D3*
X2919000D3*
Y4503127D3*
X2792000D3*
X2665000D3*
X2538000D3*
D32*
X3585750Y4185627D3*
X3395750D3*
X3490750Y3955627D3*
D19*
X3900000Y4200000D3*
Y4010000D3*
D20*
X3400000Y4500000D3*
X3590000D3*
D36*
X11350000Y5227800D3*
X11565000Y4387800D3*
X11780000Y5227800D3*
D19*
X3173000Y4169750D3*
Y3979750D3*
D20*
X11588627Y5619623D3*
X11778627D3*
D19*
X3555607Y2222247D3*
Y2412247D3*
D36*
X5125000Y1400000D3*
D37*
X3875000D3*
X5125000Y1900000D3*
X3875000D3*
D36*
X7125000Y1400000D3*
D37*
X5875000D3*
X7125000Y1900000D3*
X5875000D3*
D36*
X9125000Y1400000D3*
D37*
X7875000D3*
X9125000Y1900000D3*
X7875000D3*
D36*
X11125000Y5750000D3*
D37*
X9875000D3*
X11125000Y6250000D3*
X9875000D3*
D36*
X11125000Y3750000D3*
D37*
X9875000D3*
X11125000Y4250000D3*
X9875000D3*
D36*
X11125000Y1400000D3*
D37*
X9875000D3*
X11125000Y1900000D3*
X9875000D3*
D38*
X9340000Y5439000D3*
D39*
Y5185000D3*
Y4931000D3*
Y4677000D3*
Y4423000D3*
Y4169000D3*
Y3915000D3*
Y3661000D3*
D30*
X3413000Y5191000D3*
X1238100Y1968273D3*
X6889627Y5953000D3*
X9680000Y4420000D3*
Y4680000D3*
Y4930000D3*
Y5185000D3*
X9675000Y5440000D3*
X9680000Y3915000D3*
X3904820Y3634973D3*
X3908803Y5457810D3*
D40*
X2034000Y2240000D3*
X1780000D3*
D41*
X1526000D3*
D42*
X6302250Y5968873D3*
Y5460873D3*
Y5206873D3*
Y4952873D3*
Y4698873D3*
Y3936873D3*
Y3682873D3*
X4778250Y4190873D3*
Y4444873D3*
Y4698873D3*
Y4952873D3*
Y5206873D3*
Y5460873D3*
Y5714873D3*
Y3428873D3*
X6302250Y2920873D3*
X4778250Y3682873D3*
Y3936873D3*
Y6222873D3*
Y5968873D3*
X6302250Y5714873D3*
X4778250Y3174873D3*
X6302250D3*
X4778250Y2920873D3*
X6302250Y6222873D3*
Y4190873D3*
Y4444873D3*
X4778250Y2666873D3*
X6302250Y3428873D3*
Y2666873D3*
M02*
